<svg width="363" height="512" viewBox="0 0 363 512" fill="none" xmlns="http://www.w3.org/2000/svg">
<path d="M274.087 0H297.171V46.222H329.624V69.044H274.087V0Z" fill="black"/>
<path d="M33.011 470.877L0 100.62H362.734L329.688 470.819L181.145 512L33.011 470.877Z" fill="#E44D26"/>
<path d="M181.367 480.523L301.397 447.246L329.637 130.894H181.367V480.523Z" fill="#F16529"/>
<path d="M181.367 268.217H121.277L117.127 221.716H181.367V176.305H181.21H67.499L68.586 188.488L79.747 313.627H181.367V268.217Z" fill="#EBEBEB"/>
<path d="M181.367 386.153L181.168 386.206L130.594 372.55L127.361 336.333H102.786H81.7764L88.1384 407.634L181.158 433.457L181.367 433.399V386.153Z" fill="#EBEBEB"/>
<path d="M33.749 0H56.826V22.8H77.936V0H101.014V69.044H77.937V45.924H56.827V69.044H33.75V0H33.749Z" fill="black"/>
<path d="M131.361 22.896H111.045V0H174.765V22.896H154.44V69.044H131.362V22.896H131.361Z" fill="black"/>
<path d="M184.878 0H208.941L223.743 24.26L238.53 0H262.602V69.044H239.62V34.822L223.743 59.371H223.346L207.458 34.822V69.044H184.878V0Z" fill="black"/>
<path d="M181.21 268.217V313.627H237.128L231.857 372.521L181.21 386.191V433.435L274.304 407.634L274.987 399.962L285.658 280.411L286.766 268.217H274.529H181.21Z" fill="white"/>
<path d="M181.21 176.305V204.509V221.605V221.716H290.752H290.898L291.809 211.509L293.878 188.488L294.964 176.305H181.21Z" fill="white"/>
</svg>
