<?xml version="1.0" encoding="UTF-8"?>
<svg viewBox="0 0 363 512" xmlns="http://www.w3.org/2000/svg">
<path d="M274.087 0H297.171V46.222H329.624V69.044H274.087V0Z"/>
<path d="M33.011 470.877L0 100.62H362.734L329.688 470.819L181.145 512L33.011 470.877Z" fill="#E44D26"/>
<path d="m181.37 480.52l120.03-33.277 28.24-316.35h-148.27v349.63z" fill="#F16529"/>
<path d="m181.37 268.22h-60.09l-4.15-46.501h64.24v-45.411h-113.87l1.087 12.183 11.161 125.14h101.62v-45.41z" fill="#EBEBEB"/>
<path d="m181.37 386.15l-0.199 0.053-50.574-13.656-3.233-36.217h-45.585l6.362 71.301 93.02 25.823 0.209-0.058v-47.246z" fill="#EBEBEB"/>
<path d="M33.749 0H56.826V22.8H77.936V0H101.014V69.044H77.937V45.924H56.827V69.044H33.75V0H33.749Z"/>
<path d="M131.361 22.896H111.045V0H174.765V22.896H154.44V69.044H131.362V22.896H131.361Z"/>
<path d="M184.878 0H208.941L223.743 24.26L238.53 0H262.602V69.044H239.62V34.822L223.743 59.371H223.346L207.458 34.822V69.044H184.878V0Z"/>
<path d="m181.21 268.22v45.41h55.918l-5.271 58.894-50.647 13.67v47.244l93.094-25.801 0.683-7.672 10.671-119.55 1.108-12.194h-105.56z" fill="#fff"/>
<path d="m181.21 176.3v45.411h109.69l0.911-10.207 2.069-23.021 1.086-12.183h-113.75z" fill="#fff"/>
</svg>