<svg id="svg" version="1.1" xmlns="http://www.w3.org/2000/svg" xmlns:xlink="http://www.w3.org/1999/xlink" width="400" height="389.1647855530474" viewBox="0, 0, 400,389.1647855530474"><g id="svgg"><path id="path0" d="M129.498 93.511 C 128.644 93.959,127.332 94.722,126.582 95.207 C 125.833 95.692,123.992 96.844,122.493 97.766 C 110.390 105.210,98.709 119.238,93.471 132.619 C 93.303 133.048,92.905 134.012,92.587 134.761 C 91.298 137.794,88.774 146.105,88.033 149.757 C 87.023 154.736,86.859 155.756,86.287 160.662 C 85.962 163.447,85.518 167.199,85.302 169.001 C 82.854 189.346,86.695 196.624,106.795 209.728 C 114.076 214.474,118.419 218.559,120.318 222.446 C 121.689 225.251,121.812 225.681,123.321 232.911 C 123.879 235.589,124.473 238.393,124.641 239.143 C 124.809 239.893,125.137 241.470,125.371 242.648 C 125.606 243.827,126.140 246.193,126.558 247.907 C 130.527 264.159,130.392 263.672,133.842 274.197 C 134.790 277.089,135.718 279.805,135.903 280.234 C 136.088 280.662,136.539 281.714,136.904 282.571 C 145.318 302.322,159.303 314.427,177.605 317.801 C 178.997 318.057,180.925 318.418,181.889 318.602 C 182.853 318.787,185.920 319.028,188.705 319.139 C 215.740 320.215,232.087 310.768,241.872 288.413 C 242.341 287.342,242.953 285.940,243.233 285.297 C 243.513 284.654,244.174 282.902,244.703 281.402 C 245.604 278.848,246.020 277.445,247.010 273.612 C 247.232 272.756,247.562 271.616,247.744 271.081 C 248.162 269.852,249.676 264.196,249.932 262.902 C 250.038 262.366,250.481 260.175,250.917 258.033 C 251.352 255.891,251.876 253.262,252.081 252.191 C 252.286 251.120,252.598 249.542,252.774 248.685 C 253.154 246.837,254.750 238.081,255.886 231.615 C 257.002 225.266,257.633 223.000,259.104 220.058 C 259.800 218.666,260.419 217.424,260.478 217.299 C 260.538 217.174,259.574 216.855,258.336 216.590 C 257.098 216.325,254.897 215.665,253.445 215.124 C 250.977 214.204,250.721 214.178,249.550 214.728 C 246.945 215.952,243.938 217.275,241.870 218.108 C 240.691 218.582,239.377 219.119,238.948 219.301 C 238.520 219.484,236.241 220.265,233.885 221.037 C 231.529 221.809,229.250 222.595,228.822 222.784 C 224.687 224.601,214.235 226.097,209.145 225.599 C 194.775 224.193,185.052 215.248,180.069 198.850 C 177.487 190.351,176.242 175.066,177.185 163.424 L 177.655 157.618 176.559 156.164 C 174.218 153.060,168.431 145.443,167.992 144.888 C 166.033 142.412,160.471 134.648,155.158 126.972 C 151.674 121.938,148.277 117.030,147.610 116.066 C 143.255 109.778,137.634 101.416,135.061 97.398 C 131.805 92.313,131.795 92.306,129.498 93.511 M151.732 167.704 C 167.531 172.765,172.474 192.302,160.836 203.690 C 149.380 214.900,130.498 210.249,125.302 194.937 C 119.973 179.234,136.042 162.677,151.732 167.704 M166.857 263.345 C 168.517 264.101,169.036 265.848,169.036 270.673 L 169.036 275.015 170.497 275.627 C 174.890 277.466,184.718 280.039,187.347 280.039 L 188.900 280.039 188.900 274.767 C 188.900 268.951,189.182 268.037,191.239 267.185 C 194.402 265.875,195.910 268.552,195.910 275.476 L 195.910 280.039 197.131 280.039 C 197.802 280.039,199.073 279.850,199.955 279.619 C 200.837 279.387,202.259 279.016,203.116 278.794 C 206.791 277.839,211.320 276.236,213.632 275.071 C 215.594 274.083,215.774 273.590,215.774 269.224 C 215.774 261.539,221.898 259.953,222.326 267.526 C 222.515 270.860,222.727 270.935,226.095 268.862 C 229.999 266.460,233.301 267.159,233.301 270.387 C 233.301 272.612,232.358 273.454,226.290 276.649 C 224.684 277.495,223.164 278.351,222.913 278.551 C 222.619 278.786,222.411 280.721,222.328 283.991 C 222.202 289.001,222.187 289.078,221.108 290.005 C 218.374 292.355,215.774 290.258,215.774 285.704 C 215.774 282.025,215.641 281.957,211.414 283.458 C 206.865 285.074,203.291 285.996,197.858 286.956 L 196.105 287.266 195.901 289.592 C 195.328 296.119,188.900 296.816,188.900 290.351 C 188.900 287.658,188.634 287.050,187.459 287.050 C 186.396 287.050,179.385 285.721,177.215 285.108 C 176.465 284.896,174.455 284.283,172.747 283.744 C 171.039 283.206,169.506 282.765,169.339 282.765 C 169.172 282.765,169.036 283.921,169.036 285.334 C 169.036 289.781,166.557 292.146,163.793 290.335 C 162.468 289.466,162.026 287.832,162.019 283.778 C 162.013 279.728,161.984 279.660,159.883 278.710 C 151.194 274.781,149.785 273.717,149.881 271.160 C 150.002 267.937,152.776 267.571,157.928 270.097 C 161.944 272.066,162.011 272.040,162.019 268.432 C 162.030 264.109,163.996 262.041,166.857 263.345 " stroke="none" fill="#ec1c14" fill-rule="evenodd"></path><path id="path1" d="M63.676 9.109 C 55.253 10.977,51.819 17.320,53.742 27.459 C 53.985 28.744,54.281 30.367,54.399 31.065 C 54.517 31.763,54.770 32.431,54.960 32.549 C 55.151 32.666,55.307 33.180,55.307 33.690 C 55.307 34.201,55.482 34.726,55.696 34.859 C 55.910 34.991,56.086 35.347,56.086 35.650 C 56.086 35.953,56.504 37.126,57.016 38.256 C 58.726 42.036,59.680 44.777,59.473 45.317 C 59.275 45.830,55.436 45.547,54.465 44.947 C 54.284 44.835,53.216 44.570,52.092 44.357 C 50.968 44.145,49.260 43.813,48.296 43.618 C 36.379 41.217,23.821 41.058,19.772 43.255 C 19.400 43.457,18.822 43.622,18.487 43.622 C 17.017 43.622,12.503 47.113,10.956 49.447 C 9.173 52.135,8.239 57.921,8.893 62.220 C 9.146 63.880,9.352 65.798,9.350 66.481 C 9.349 67.165,9.523 67.833,9.737 67.965 C 9.951 68.097,10.127 68.553,10.127 68.978 C 10.127 71.430,13.798 76.626,16.358 77.798 C 19.434 79.206,28.844 79.241,33.262 77.860 C 33.883 77.666,34.834 77.507,35.376 77.507 C 35.918 77.507,36.900 77.345,37.558 77.148 C 39.289 76.627,42.363 75.966,45.222 75.500 C 46.591 75.276,48.763 74.913,50.049 74.693 C 53.134 74.165,63.214 74.155,65.433 74.678 C 68.671 75.441,71.656 76.657,71.662 77.215 C 71.664 77.376,71.894 77.507,72.174 77.507 C 72.453 77.507,73.216 77.902,73.869 78.384 C 75.130 79.314,78.130 81.725,78.838 82.376 C 79.071 82.590,80.134 83.466,81.201 84.323 C 83.509 86.176,88.094 90.481,95.826 98.053 C 102.348 104.440,101.680 104.137,103.969 101.749 C 105.862 99.773,107.301 98.491,110.418 96.004 C 111.489 95.149,112.628 94.199,112.950 93.892 C 113.727 93.151,119.873 89.192,120.250 89.190 C 120.412 89.189,121.071 88.762,121.714 88.242 C 123.043 87.167,123.197 87.573,119.751 83.095 C 118.457 81.414,114.620 76.358,111.224 71.860 C 107.828 67.361,104.549 63.071,103.937 62.326 C 103.325 61.581,102.824 60.749,102.824 60.476 C 102.824 60.203,102.686 59.981,102.518 59.981 C 102.350 59.981,101.884 59.424,101.482 58.743 C 101.080 58.063,100.530 57.231,100.259 56.893 C 97.209 53.099,91.918 43.441,91.918 41.667 C 91.918 41.166,91.754 40.218,91.553 39.560 C 91.352 38.902,90.717 36.787,90.142 34.859 C 88.999 31.028,88.960 30.917,87.481 27.336 C 86.922 25.983,86.465 24.624,86.465 24.317 C 86.465 24.010,86.311 23.759,86.121 23.759 C 85.932 23.759,85.679 23.452,85.559 23.077 C 82.492 13.520,72.510 7.150,63.676 9.109 M114.898 251.063 C 113.720 252.885,112.583 254.717,112.371 255.133 C 112.160 255.550,111.853 255.891,111.690 255.891 C 111.526 255.891,111.392 256.049,111.392 256.241 C 111.392 256.545,101.954 270.468,100.882 271.746 C 100.664 272.005,100.487 272.319,100.487 272.444 C 100.487 272.569,100.306 272.883,100.085 273.142 C 99.864 273.401,98.505 275.299,97.066 277.361 C 92.997 283.191,88.695 289.139,88.139 289.706 C 87.861 289.990,87.634 290.351,87.634 290.509 C 87.634 290.668,87.321 291.137,86.938 291.553 C 86.555 291.968,85.126 293.885,83.764 295.813 C 82.402 297.741,81.178 299.406,81.044 299.513 C 80.851 299.668,77.187 304.259,74.519 307.690 C 68.704 315.168,63.617 319.870,59.591 321.491 C 56.716 322.648,56.357 322.773,54.528 323.254 C 53.564 323.508,51.986 323.951,51.022 324.239 C 50.058 324.528,48.569 324.883,47.712 325.028 C 46.855 325.174,45.365 325.445,44.401 325.631 C 43.437 325.817,42.035 326.070,41.285 326.194 C 39.863 326.429,38.756 326.701,34.859 327.771 C 28.499 329.517,25.439 331.591,24.251 334.956 C 23.670 336.603,23.588 343.135,24.148 343.135 C 24.362 343.135,24.537 343.419,24.537 343.765 C 24.537 344.592,26.953 347.864,28.265 348.814 C 28.833 349.225,29.497 349.737,29.741 349.951 C 31.999 351.933,39.279 355.988,40.579 355.988 C 40.882 355.988,41.296 356.128,41.500 356.298 C 41.901 356.635,43.306 357.107,46.933 358.124 C 48.218 358.484,49.818 359.015,50.489 359.303 L 51.708 359.826 51.939 363.652 C 52.301 369.659,52.454 370.365,54.246 374.294 C 54.969 375.879,57.863 378.457,59.267 378.766 C 62.392 379.454,71.792 378.381,75.170 376.952 C 79.632 375.064,79.570 375.232,79.909 364.060 C 80.066 358.871,80.391 353.924,80.631 353.067 C 81.507 349.934,82.311 347.579,83.017 346.081 C 83.414 345.237,83.739 344.394,83.739 344.207 C 83.739 344.019,84.191 342.869,84.744 341.651 C 85.968 338.952,86.486 337.731,86.838 336.709 C 86.985 336.280,87.554 334.966,88.101 333.788 C 88.649 332.610,89.403 330.944,89.778 330.088 C 91.054 327.173,92.757 323.468,93.092 322.882 C 93.666 321.876,96.707 316.109,97.147 315.193 C 97.377 314.713,97.697 314.318,97.858 314.317 C 98.019 314.315,98.150 314.108,98.150 313.857 C 98.150 313.332,104.789 302.891,105.248 302.694 C 105.414 302.623,105.550 302.396,105.550 302.191 C 105.550 301.985,105.735 301.605,105.962 301.347 C 106.189 301.088,108.119 298.423,110.252 295.424 C 112.385 292.425,114.347 289.704,114.612 289.379 C 114.876 289.053,115.609 288.089,116.240 287.237 C 116.872 286.384,117.485 285.599,117.604 285.492 C 117.722 285.385,119.133 283.544,120.740 281.402 C 122.347 279.260,123.759 277.420,123.878 277.313 C 125.046 276.266,125.356 275.216,124.810 274.158 C 124.499 273.558,124.245 272.718,124.245 272.292 C 124.245 271.865,124.070 271.408,123.856 271.276 C 123.642 271.143,123.466 270.530,123.466 269.912 C 123.466 269.295,123.291 268.682,123.077 268.549 C 122.863 268.417,122.687 267.966,122.687 267.547 C 122.687 267.128,122.527 266.482,122.331 266.110 C 122.135 265.738,121.688 264.206,121.337 262.707 C 120.986 261.207,120.541 259.367,120.348 258.617 C 119.137 253.914,118.009 248.976,118.011 248.393 C 118.017 246.965,116.964 247.867,114.898 251.063 M260.746 252.797 C 260.606 253.023,260.326 254.206,260.123 255.426 C 259.921 256.646,259.595 258.432,259.399 259.396 C 259.203 260.360,258.882 261.938,258.686 262.902 C 258.194 265.324,257.406 268.395,257.037 269.328 C 256.867 269.757,256.620 270.633,256.487 271.276 C 256.196 272.685,255.649 274.883,255.325 275.949 C 255.171 276.456,255.398 277.087,255.976 277.755 C 256.465 278.320,257.390 279.447,258.033 280.258 C 259.155 281.674,266.174 290.307,267.514 291.918 C 267.870 292.347,268.856 293.661,269.706 294.839 C 270.555 296.018,271.353 297.069,271.478 297.176 C 271.604 297.283,272.222 298.072,272.852 298.929 C 273.482 299.786,274.095 300.574,274.215 300.682 C 274.335 300.789,274.948 301.577,275.578 302.434 C 276.208 303.291,276.822 304.080,276.941 304.187 C 277.061 304.294,277.675 305.083,278.305 305.940 C 278.935 306.796,279.540 307.585,279.649 307.692 C 280.297 308.326,281.986 310.817,281.986 311.139 C 281.986 311.350,282.125 311.581,282.293 311.652 C 282.462 311.723,283.506 313.009,284.613 314.508 C 285.720 316.008,286.768 317.410,286.941 317.624 C 287.654 318.504,290.839 323.105,290.985 323.466 C 291.071 323.681,292.456 325.871,294.062 328.335 C 295.668 330.798,297.658 334.216,298.486 335.930 C 299.313 337.644,300.153 339.361,300.351 339.747 C 300.550 340.132,300.891 341.271,301.109 342.278 C 301.514 344.150,301.922 345.994,302.652 349.270 C 303.386 352.561,304.183 357.272,304.579 360.662 C 306.198 374.533,308.324 378.415,314.898 379.498 C 315.540 379.604,317.381 379.971,318.987 380.312 C 326.116 381.828,332.706 380.472,336.872 376.631 C 338.425 375.199,341.188 371.455,341.188 370.783 C 341.188 370.566,341.363 370.040,341.577 369.615 C 341.792 369.189,342.140 368.497,342.351 368.075 C 343.109 366.566,343.788 363.311,344.527 357.636 C 344.837 355.251,344.965 355.138,347.809 354.734 C 356.725 353.469,357.917 353.241,365.920 351.262 C 366.777 351.050,368.004 350.778,368.647 350.657 C 369.289 350.537,369.990 350.311,370.204 350.157 C 370.419 350.002,371.558 349.579,372.736 349.217 C 373.914 348.854,375.229 348.407,375.657 348.223 C 376.086 348.039,377.137 347.588,377.994 347.220 C 386.676 343.494,390.801 339.643,391.326 334.777 C 391.659 331.689,382.636 319.799,378.570 317.968 C 378.039 317.729,377.118 317.303,376.523 317.020 C 375.218 316.402,369.808 316.338,368.219 316.923 C 367.597 317.152,366.300 317.553,365.336 317.816 C 363.671 318.268,361.395 319.070,359.688 319.806 C 351.679 323.257,340.204 325.439,336.515 324.213 C 333.771 323.300,329.215 320.823,328.335 319.764 C 328.228 319.636,327.439 319.015,326.582 318.385 C 325.725 317.755,324.937 317.150,324.830 317.041 C 324.722 316.931,323.408 315.863,321.908 314.666 C 317.073 310.806,296.316 290.517,287.439 280.975 C 286.047 279.478,282.705 275.895,280.014 273.012 C 277.323 270.129,274.256 266.813,273.198 265.643 C 272.141 264.473,270.925 263.139,270.497 262.678 C 264.870 256.622,261.734 253.043,261.734 252.678 C 261.733 252.241,261.037 252.325,260.746 252.797 " stroke="none" fill="#fbfbfb" fill-rule="evenodd"></path><path id="path2" d="M180.721 81.406 C 171.281 81.912,160.484 83.084,155.988 84.091 C 155.131 84.282,153.554 84.623,152.483 84.848 C 147.399 85.916,140.240 88.936,140.219 90.022 C 140.209 90.510,147.851 102.078,155.364 112.950 C 164.476 126.136,164.103 125.593,165.399 127.556 C 166.793 129.666,177.249 143.710,179.681 146.738 C 181.946 149.559,182.128 149.596,185.436 147.886 C 188.221 146.447,195.366 144.002,198.637 143.369 C 199.815 143.140,201.708 142.776,202.843 142.558 C 207.223 141.717,217.822 142.252,222.395 143.544 C 226.125 144.598,231.892 146.860,233.727 147.990 C 234.785 148.640,235.753 149.172,235.880 149.172 C 236.006 149.172,236.595 149.567,237.188 150.049 C 237.781 150.531,238.770 151.274,239.386 151.700 C 240.930 152.769,248.980 160.680,249.677 161.812 C 249.988 162.319,250.933 163.556,251.776 164.560 C 254.945 168.335,262.902 182.127,262.902 183.845 C 262.902 184.060,263.069 184.541,263.273 184.913 C 267.444 192.512,267.137 203.467,262.639 207.518 C 260.902 209.081,261.949 208.890,265.687 206.959 C 280.461 199.328,290.596 183.517,288.664 171.111 C 288.436 169.649,288.135 167.313,287.995 165.920 C 287.855 164.528,287.496 162.162,287.196 160.662 C 286.896 159.163,286.482 156.987,286.276 155.827 C 285.865 153.516,283.674 145.158,283.152 143.914 C 282.973 143.486,282.531 142.259,282.170 141.188 C 281.265 138.499,281.060 137.985,279.918 135.540 C 279.368 134.362,278.319 132.084,277.586 130.477 C 276.853 128.870,275.440 126.183,274.446 124.505 C 273.452 122.827,272.639 121.361,272.639 121.247 C 272.639 120.257,265.498 111.930,261.289 108.011 C 259.720 106.550,258.190 105.125,257.889 104.843 C 256.555 103.594,248.401 97.698,245.570 95.935 C 241.085 93.143,235.983 90.584,230.574 88.413 C 229.396 87.940,228.082 87.409,227.653 87.232 C 216.540 82.652,198.730 80.441,180.721 81.406 " stroke="none" fill="#047bfa" fill-rule="evenodd"></path><path id="path3" d="M59.786 0.251 C 58.180 0.420,55.696 1.504,55.696 2.036 C 55.696 2.201,55.258 2.337,54.722 2.337 C 54.187 2.337,53.749 2.512,53.749 2.726 C 53.749 2.941,53.421 3.116,53.019 3.116 C 52.618 3.116,51.766 3.729,51.126 4.479 C 50.485 5.229,49.837 5.842,49.685 5.842 C 49.346 5.842,48.296 6.865,48.296 7.195 C 48.296 7.327,47.858 7.874,47.322 8.409 C 46.787 8.945,46.349 9.638,46.349 9.950 C 46.349 10.261,46.173 10.516,45.959 10.516 C 45.745 10.516,45.570 10.856,45.570 11.272 C 45.570 11.688,45.394 12.136,45.180 12.269 C 44.966 12.401,44.791 13.269,44.791 14.197 C 44.791 15.339,44.601 15.958,44.206 16.110 C 43.723 16.295,43.622 17.338,43.622 22.141 C 43.622 26.827,43.735 28.041,44.206 28.432 C 44.593 28.753,44.791 29.625,44.791 31.012 L 44.791 33.106 42.036 33.106 C 40.108 33.106,39.107 32.931,38.698 32.522 C 37.832 31.656,24.621 31.656,24.289 32.522 C 24.120 32.963,23.407 33.106,21.380 33.106 C 19.850 33.106,18.695 33.274,18.695 33.496 C 18.695 33.710,18.082 33.885,17.332 33.885 C 16.582 33.885,15.969 34.060,15.969 34.275 C 15.969 34.489,15.438 34.664,14.788 34.664 C 14.098 34.664,13.514 34.907,13.383 35.248 C 13.260 35.570,12.871 35.836,12.519 35.841 C 12.167 35.846,11.441 36.193,10.906 36.611 C 10.370 37.030,9.625 37.377,9.250 37.382 C 8.875 37.387,8.569 37.578,8.569 37.808 C 8.569 38.275,7.605 39.338,7.181 39.338 C 6.837 39.338,5.064 41.376,5.064 41.772 C 5.064 41.933,4.876 42.064,4.646 42.064 C 3.987 42.064,3.116 43.108,3.116 43.898 C 3.116 44.294,2.772 44.867,2.351 45.170 C 1.931 45.473,1.470 46.257,1.329 46.911 C 1.187 47.566,0.874 48.226,0.633 48.379 C -0.029 48.800,0.018 71.347,0.682 71.568 C 0.949 71.657,1.168 72.141,1.168 72.643 C 1.168 73.146,1.431 73.820,1.753 74.141 C 2.074 74.462,2.337 75.053,2.337 75.454 C 2.337 76.347,3.201 78.279,3.603 78.283 C 3.763 78.285,3.895 78.555,3.895 78.883 C 3.895 79.211,4.158 79.580,4.479 79.703 C 4.800 79.827,5.063 80.259,5.063 80.665 C 5.063 81.070,5.216 81.402,5.403 81.402 C 5.589 81.402,6.647 82.278,7.752 83.350 C 8.857 84.421,10.107 85.297,10.528 85.297 C 10.950 85.297,11.295 85.560,11.295 85.881 C 11.295 86.245,11.663 86.465,12.269 86.465 C 12.804 86.465,13.242 86.641,13.242 86.855 C 13.242 87.069,13.856 87.244,14.606 87.244 C 15.355 87.244,15.969 87.420,15.969 87.634 C 15.969 87.881,18.890 88.023,23.953 88.023 C 29.017 88.023,31.938 87.881,31.938 87.634 C 31.938 87.411,33.106 87.244,34.664 87.244 C 36.222 87.244,37.390 87.077,37.390 86.855 C 37.390 86.641,38.254 86.465,39.310 86.465 C 40.497 86.465,41.453 86.242,41.814 85.881 C 42.180 85.515,43.137 85.297,44.373 85.297 C 45.460 85.297,46.349 85.122,46.349 84.907 C 46.349 84.685,47.517 84.518,49.075 84.518 C 50.633 84.518,51.801 84.351,51.801 84.129 C 51.801 83.604,63.356 83.604,63.681 84.129 C 63.813 84.343,64.264 84.518,64.683 84.518 C 65.670 84.518,66.768 85.128,68.714 86.758 C 69.034 87.025,69.390 87.244,69.506 87.244 C 69.621 87.244,70.366 87.858,71.161 88.608 C 71.956 89.357,72.794 89.971,73.023 89.971 C 73.253 89.971,73.693 90.321,74.002 90.750 C 74.311 91.178,74.788 91.529,75.062 91.529 C 75.336 91.529,75.560 91.712,75.560 91.936 C 75.560 92.378,77.313 94.255,77.726 94.255 C 77.865 94.255,78.324 94.693,78.745 95.229 C 79.167 95.764,79.761 96.203,80.067 96.203 C 80.373 96.203,80.623 96.378,80.623 96.592 C 80.623 96.806,80.886 96.981,81.207 96.981 C 81.529 96.981,81.792 97.165,81.792 97.389 C 81.792 97.917,83.582 99.708,84.111 99.708 C 84.335 99.708,84.518 99.891,84.518 100.115 C 84.518 100.644,86.309 102.434,86.837 102.434 C 87.061 102.434,87.244 102.618,87.244 102.841 C 87.244 103.370,89.035 105.161,89.564 105.161 C 89.788 105.161,89.971 105.344,89.971 105.568 C 89.971 106.097,91.761 107.887,92.290 107.887 C 92.514 107.887,92.697 108.070,92.697 108.294 C 92.697 108.823,94.488 110.613,95.016 110.613 C 95.240 110.613,95.424 110.876,95.424 111.198 C 95.424 111.519,95.236 111.782,95.006 111.782 C 94.430 111.782,93.479 112.785,93.464 113.409 C 93.448 114.070,92.528 115.287,92.045 115.287 C 91.841 115.287,91.433 115.901,91.139 116.650 C 90.845 117.400,90.462 118.014,90.288 118.014 C 90.113 118.014,89.971 118.370,89.971 118.805 C 89.971 119.240,89.708 119.697,89.387 119.820 C 89.065 119.944,88.802 120.376,88.802 120.782 C 88.802 121.187,88.627 121.519,88.413 121.519 C 88.199 121.519,88.023 121.957,88.023 122.493 C 88.023 123.028,87.848 123.466,87.634 123.466 C 87.420 123.466,87.244 123.798,87.244 124.204 C 87.244 124.609,86.981 125.042,86.660 125.165 C 86.339 125.288,86.076 125.745,86.076 126.181 C 86.076 126.616,85.901 126.972,85.686 126.972 C 85.472 126.972,85.297 127.400,85.297 127.922 C 85.297 128.445,85.122 128.982,84.907 129.114 C 84.693 129.246,84.518 129.851,84.518 130.458 C 84.518 131.080,84.263 131.660,83.934 131.786 C 83.612 131.910,83.350 132.356,83.350 132.779 C 83.350 133.201,83.174 133.655,82.960 133.788 C 82.746 133.920,82.571 134.446,82.571 134.956 C 82.571 135.466,82.395 135.992,82.181 136.125 C 81.967 136.257,81.792 137.144,81.792 138.095 C 81.792 139.046,81.636 139.825,81.445 139.825 C 81.255 139.825,80.984 140.438,80.844 141.188 C 80.703 141.938,80.421 142.551,80.216 142.551 C 80.012 142.551,79.844 143.340,79.844 144.304 C 79.844 145.268,79.669 146.056,79.455 146.056 C 79.241 146.056,79.065 147.020,79.065 148.199 C 79.065 149.377,78.890 150.341,78.676 150.341 C 78.454 150.341,78.286 151.493,78.286 153.019 C 78.286 154.925,78.118 155.838,77.702 156.183 C 77.268 156.543,77.118 157.506,77.118 159.931 C 77.118 161.846,76.957 163.194,76.728 163.194 C 76.486 163.194,76.339 165.393,76.339 169.013 C 76.339 172.472,76.181 174.930,75.949 175.073 C 75.732 175.207,75.560 177.024,75.560 179.186 C 75.560 181.507,75.716 183.057,75.949 183.057 C 76.177 183.057,76.339 184.356,76.339 186.173 C 76.339 187.991,76.501 189.289,76.728 189.289 C 76.943 189.289,77.118 189.903,77.118 190.652 C 77.118 191.604,77.294 192.016,77.702 192.016 C 78.110 192.016,78.286 192.427,78.286 193.379 C 78.286 194.129,78.462 194.742,78.676 194.742 C 78.890 194.742,79.065 195.180,79.065 195.716 C 79.065 196.251,79.241 196.689,79.455 196.689 C 79.669 196.689,79.844 197.021,79.844 197.427 C 79.844 197.832,80.107 198.265,80.428 198.388 C 80.750 198.511,81.013 198.930,81.013 199.318 C 81.013 199.705,81.363 200.275,81.792 200.584 C 82.220 200.893,82.571 201.429,82.571 201.774 C 82.571 202.120,83.053 202.837,83.642 203.368 C 84.231 203.898,85.061 204.804,85.487 205.380 C 85.913 205.955,86.407 206.426,86.586 206.426 C 87.050 206.426,88.023 207.463,88.023 207.957 C 88.023 208.186,88.286 208.374,88.608 208.374 C 88.929 208.374,89.192 208.549,89.192 208.763 C 89.192 208.978,89.467 209.153,89.804 209.153 C 90.503 209.153,91.529 210.062,91.529 210.683 C 91.529 210.913,91.711 211.100,91.934 211.100 C 92.158 211.100,92.717 211.451,93.176 211.879 C 93.636 212.308,94.330 212.658,94.718 212.658 C 95.106 212.658,95.424 212.921,95.424 213.242 C 95.424 213.567,95.770 213.827,96.203 213.827 C 96.631 213.827,96.981 214.002,96.981 214.216 C 96.981 214.430,97.244 214.606,97.566 214.606 C 97.887 214.606,98.150 214.781,98.150 214.995 C 98.150 215.209,98.500 215.385,98.929 215.385 C 99.362 215.385,99.708 215.644,99.708 215.969 C 99.708 216.290,99.971 216.553,100.292 216.553 C 100.613 216.553,100.876 216.728,100.876 216.943 C 100.876 217.157,101.163 217.332,101.513 217.332 C 101.864 217.332,102.556 217.770,103.053 218.306 C 103.549 218.841,104.151 219.279,104.391 219.279 C 104.631 219.279,105.048 219.499,105.319 219.766 C 105.590 220.034,106.298 220.604,106.892 221.032 C 107.487 221.461,108.204 222.030,108.487 222.298 C 108.769 222.566,109.113 222.785,109.250 222.785 C 109.689 222.785,110.613 223.878,110.626 224.412 C 110.643 225.117,111.574 226.290,112.117 226.290 C 112.361 226.290,112.561 226.816,112.561 227.459 C 112.561 228.101,112.736 228.627,112.950 228.627 C 113.165 228.627,113.340 229.328,113.340 230.185 C 113.340 231.042,113.515 231.743,113.729 231.743 C 113.944 231.743,114.119 232.532,114.119 233.496 C 114.119 234.460,113.944 235.248,113.729 235.248 C 113.515 235.248,113.340 235.511,113.340 235.833 C 113.340 236.154,113.165 236.417,112.950 236.417 C 112.736 236.417,112.561 236.688,112.561 237.020 C 112.561 237.351,112.123 238.028,111.587 238.525 C 111.052 239.021,110.613 239.714,110.613 240.064 C 110.613 240.414,110.438 240.701,110.224 240.701 C 110.010 240.701,109.834 240.889,109.834 241.118 C 109.834 241.348,109.615 241.780,109.348 242.079 C 108.192 243.367,107.887 243.808,107.887 244.190 C 107.887 244.413,107.712 244.596,107.498 244.596 C 107.283 244.596,107.108 244.850,107.108 245.160 C 107.108 245.470,106.670 246.197,106.134 246.775 C 105.599 247.353,105.161 248.063,105.161 248.353 C 105.161 248.643,104.985 248.880,104.771 248.880 C 104.557 248.880,104.382 249.068,104.382 249.298 C 104.382 249.527,104.163 249.959,103.895 250.258 C 102.739 251.547,102.434 251.987,102.434 252.369 C 102.434 252.592,102.259 252.775,102.045 252.775 C 101.831 252.775,101.655 253.126,101.655 253.554 C 101.655 253.982,101.480 254.333,101.266 254.333 C 101.052 254.333,100.876 254.596,100.876 254.917 C 100.876 255.239,100.613 255.501,100.292 255.501 C 99.968 255.501,99.708 255.848,99.708 256.280 C 99.708 256.709,99.533 257.059,99.318 257.059 C 99.104 257.059,98.929 257.322,98.929 257.644 C 98.929 257.965,98.754 258.228,98.539 258.228 C 98.325 258.228,98.150 258.578,98.150 259.007 C 98.150 259.435,97.950 259.786,97.706 259.786 C 97.135 259.786,96.231 260.974,96.215 261.745 C 96.208 262.072,95.841 262.598,95.399 262.913 C 94.957 263.228,94.324 264.056,93.992 264.752 C 93.659 265.448,93.232 266.018,93.042 266.018 C 92.852 266.018,92.697 266.205,92.697 266.435 C 92.697 266.664,92.478 267.096,92.210 267.395 C 91.055 268.684,90.750 269.124,90.750 269.506 C 90.750 269.730,90.574 269.912,90.360 269.912 C 90.146 269.912,89.971 270.184,89.971 270.515 C 89.971 270.847,89.533 271.524,88.997 272.020 C 88.462 272.517,88.023 273.209,88.023 273.560 C 88.023 273.910,87.848 274.197,87.634 274.197 C 87.420 274.197,87.244 274.460,87.244 274.781 C 87.244 275.102,87.001 275.365,86.705 275.365 C 86.408 275.365,85.892 275.940,85.558 276.643 C 85.024 277.770,84.563 278.422,82.967 280.315 C 82.749 280.573,82.571 280.929,82.571 281.105 C 82.571 281.281,82.220 281.678,81.792 281.986 C 81.363 282.295,81.013 282.835,81.013 283.186 C 81.013 283.537,80.598 284.136,80.091 284.517 C 79.583 284.898,78.937 285.799,78.655 286.519 C 78.372 287.239,77.974 287.829,77.770 287.829 C 77.287 287.829,76.367 289.046,76.351 289.705 C 76.344 289.987,75.725 290.796,74.976 291.503 C 74.226 292.211,73.612 293.075,73.612 293.425 C 73.612 293.774,73.437 294.060,73.223 294.060 C 73.009 294.060,72.833 294.323,72.833 294.645 C 72.833 294.966,72.635 295.229,72.392 295.229 C 71.748 295.229,70.108 297.256,70.108 298.053 C 70.107 298.427,69.919 298.734,69.690 298.734 C 69.242 298.734,68.160 299.691,68.160 300.087 C 68.160 300.219,67.765 300.749,67.283 301.265 C 65.987 302.652,65.433 303.349,65.433 303.595 C 65.433 303.716,64.469 304.763,63.291 305.923 C 62.113 307.082,61.149 308.218,61.149 308.446 C 61.149 308.674,61.017 308.861,60.856 308.861 C 60.695 308.861,59.716 309.649,58.681 310.613 C 57.646 311.577,56.551 312.366,56.248 312.366 C 55.944 312.366,55.696 312.521,55.696 312.711 C 55.696 313.056,54.470 313.388,51.704 313.792 C 50.816 313.922,50.243 314.219,50.243 314.549 C 50.243 314.933,49.730 315.093,48.491 315.093 C 47.527 315.093,46.738 315.268,46.738 315.482 C 46.738 315.698,45.699 315.871,44.401 315.871 C 43.103 315.871,42.064 316.045,42.064 316.261 C 42.064 316.475,41.288 316.650,40.339 316.650 C 39.326 316.650,38.374 316.891,38.030 317.235 C 37.681 317.584,36.729 317.819,35.666 317.819 C 34.686 317.819,33.885 317.994,33.885 318.208 C 33.885 318.423,33.096 318.598,32.132 318.598 C 31.168 318.598,30.380 318.773,30.380 318.987 C 30.380 319.202,29.848 319.377,29.199 319.377 C 28.509 319.377,27.925 319.620,27.794 319.961 C 27.671 320.282,27.151 320.545,26.638 320.545 C 26.125 320.545,25.706 320.721,25.706 320.935 C 25.706 321.149,25.268 321.324,24.732 321.324 C 24.197 321.324,23.759 321.500,23.759 321.714 C 23.759 321.928,23.450 322.103,23.072 322.103 C 22.694 322.103,22.056 322.541,21.654 323.077 C 21.252 323.612,20.672 324.051,20.366 324.051 C 19.732 324.051,18.695 324.975,18.695 325.539 C 18.695 325.746,18.432 326.016,18.111 326.139 C 17.790 326.262,17.527 326.631,17.527 326.960 C 17.527 327.288,17.352 327.556,17.137 327.556 C 16.923 327.556,16.748 327.896,16.748 328.312 C 16.748 328.728,16.573 329.176,16.358 329.309 C 16.144 329.441,15.969 329.871,15.969 330.264 C 15.969 330.657,15.706 331.079,15.385 331.202 C 15.001 331.349,14.800 331.958,14.800 332.974 C 14.800 333.824,14.625 334.629,14.411 334.761 C 13.898 335.079,13.898 343.402,14.411 343.720 C 14.625 343.852,14.800 344.542,14.800 345.253 C 14.800 345.964,15.063 346.764,15.385 347.030 C 15.706 347.297,15.969 347.932,15.969 348.441 C 15.969 348.950,16.144 349.367,16.358 349.367 C 16.573 349.367,16.748 349.608,16.748 349.903 C 16.748 350.198,17.405 351.148,18.208 352.015 C 19.012 352.882,20.158 354.218,20.757 354.984 C 21.355 355.751,22.100 356.378,22.412 356.378 C 22.724 356.378,22.980 356.641,22.980 356.962 C 22.980 357.283,23.242 357.546,23.564 357.546 C 23.885 357.546,24.148 357.692,24.148 357.870 C 24.148 358.048,24.629 358.442,25.216 358.746 C 25.803 359.050,26.656 359.693,27.111 360.175 C 27.565 360.657,28.214 361.052,28.551 361.052 C 28.889 361.052,29.274 361.227,29.406 361.441 C 29.538 361.655,29.987 361.831,30.403 361.831 C 30.819 361.831,31.159 362.003,31.159 362.213 C 31.159 362.423,31.597 362.705,32.132 362.839 C 32.668 362.973,33.106 363.240,33.106 363.431 C 33.106 363.622,33.446 363.778,33.862 363.778 C 34.278 363.778,34.726 363.953,34.859 364.167 C 34.991 364.382,35.596 364.557,36.203 364.557 C 36.825 364.557,37.405 364.812,37.531 365.141 C 37.655 365.463,38.189 365.725,38.718 365.725 C 39.248 365.725,39.790 365.901,39.922 366.115 C 40.054 366.329,40.766 366.504,41.503 366.504 L 42.843 366.504 42.843 369.208 C 42.843 370.695,43.019 372.020,43.233 372.152 C 43.447 372.284,43.622 373.001,43.622 373.745 C 43.622 374.588,43.842 375.182,44.206 375.322 C 44.536 375.448,44.791 376.028,44.791 376.650 C 44.791 377.257,44.966 377.862,45.180 377.994 C 45.394 378.127,45.570 378.575,45.570 378.991 C 45.570 379.407,45.745 379.747,45.959 379.747 C 46.173 379.747,46.349 380.010,46.349 380.331 C 46.349 380.652,46.536 380.915,46.766 380.915 C 47.266 380.915,48.296 381.891,48.296 382.364 C 48.296 382.686,50.318 384.863,51.563 385.881 C 51.890 386.149,52.418 386.368,52.736 386.368 C 53.053 386.368,53.422 386.543,53.554 386.758 C 53.686 386.972,54.147 387.147,54.579 387.147 C 55.010 387.147,55.625 387.410,55.947 387.731 C 56.420 388.204,57.777 388.315,63.077 388.315 C 68.420 388.315,69.711 388.208,70.107 387.731 C 70.451 387.316,71.362 387.147,73.248 387.147 C 74.708 387.147,76.012 386.972,76.144 386.758 C 76.277 386.543,76.890 386.368,77.507 386.368 C 78.125 386.368,78.738 386.193,78.870 385.979 C 79.003 385.764,79.451 385.589,79.867 385.589 C 80.283 385.589,80.623 385.326,80.623 385.005 C 80.623 384.641,80.991 384.421,81.597 384.421 C 82.132 384.421,82.571 384.257,82.571 384.057 C 82.571 383.858,82.877 383.596,83.252 383.476 C 84.207 383.169,86.076 381.501,86.076 380.955 C 86.076 380.706,86.339 380.400,86.660 380.277 C 86.981 380.154,87.244 379.809,87.244 379.510 C 87.244 379.212,87.420 378.968,87.634 378.968 C 87.848 378.968,88.023 378.530,88.023 377.994 C 88.023 377.459,88.199 377.020,88.413 377.020 C 88.661 377.020,88.802 373.789,88.802 368.104 C 88.802 360.538,88.891 359.154,89.387 358.963 C 89.823 358.796,89.971 358.097,89.971 356.195 C 89.971 354.759,90.140 353.651,90.360 353.651 C 90.574 353.651,90.750 353.038,90.750 352.288 C 90.750 351.538,90.925 350.925,91.139 350.925 C 91.353 350.925,91.534 350.618,91.541 350.243 C 91.548 349.869,91.811 349.222,92.125 348.806 C 92.440 348.390,92.697 347.733,92.697 347.345 C 92.697 346.958,92.872 346.641,93.087 346.641 C 93.301 346.641,93.476 346.203,93.476 345.667 C 93.476 345.131,93.651 344.693,93.866 344.693 C 94.080 344.693,94.255 344.330,94.255 343.886 C 94.255 343.443,94.518 342.817,94.839 342.495 C 95.161 342.174,95.424 341.584,95.424 341.183 C 95.424 340.783,95.599 340.347,95.813 340.214 C 96.027 340.082,96.203 339.633,96.203 339.218 C 96.203 338.802,96.378 338.462,96.592 338.462 C 96.806 338.462,96.981 338.098,96.981 337.655 C 96.981 337.211,97.244 336.585,97.566 336.264 C 97.887 335.942,98.150 335.352,98.150 334.951 C 98.150 334.551,98.325 334.115,98.539 333.982 C 98.754 333.850,98.929 333.402,98.929 332.986 C 98.929 332.570,99.104 332.230,99.318 332.230 C 99.533 332.230,99.708 331.792,99.708 331.256 C 99.708 330.721,99.883 330.282,100.097 330.282 C 100.312 330.282,100.487 329.844,100.487 329.309 C 100.487 328.703,100.708 328.335,101.071 328.335 C 101.396 328.335,101.655 327.989,101.655 327.556 C 101.655 327.128,101.831 326.777,102.045 326.777 C 102.259 326.777,102.434 326.339,102.434 325.803 C 102.434 325.268,102.610 324.830,102.824 324.830 C 103.038 324.830,103.213 324.391,103.213 323.856 C 103.213 323.250,103.434 322.882,103.797 322.882 C 104.122 322.882,104.382 322.536,104.382 322.103 C 104.382 321.675,104.514 321.324,104.676 321.324 C 104.838 321.324,105.222 320.755,105.528 320.058 C 105.835 319.362,106.316 318.561,106.597 318.278 C 106.878 317.995,107.108 317.513,107.108 317.207 C 107.108 316.901,107.251 316.650,107.425 316.650 C 107.599 316.650,107.982 316.037,108.277 315.287 C 108.571 314.537,109.042 313.924,109.323 313.924 C 109.604 313.924,109.834 313.574,109.834 313.145 C 109.834 312.717,110.010 312.366,110.224 312.366 C 110.438 312.366,110.613 312.103,110.613 311.782 C 110.613 311.461,110.789 311.198,111.003 311.198 C 111.217 311.198,111.392 310.926,111.392 310.595 C 111.392 310.263,111.831 309.586,112.366 309.090 C 112.902 308.593,113.340 307.901,113.340 307.550 C 113.340 307.200,113.515 306.913,113.729 306.913 C 113.944 306.913,114.119 306.747,114.119 306.544 C 114.119 306.341,114.557 305.702,115.093 305.124 C 115.628 304.546,116.066 303.916,116.066 303.723 C 116.066 303.530,116.504 302.934,117.040 302.399 C 117.575 301.863,118.014 301.256,118.014 301.050 C 118.014 300.843,118.539 300.124,119.182 299.452 C 119.825 298.779,120.351 297.905,120.351 297.508 C 120.351 297.111,120.538 296.787,120.768 296.787 C 121.399 296.787,122.298 295.757,122.298 295.034 C 122.298 294.346,123.187 293.281,123.762 293.281 C 123.956 293.281,124.348 292.843,124.635 292.308 C 124.921 291.772,125.302 291.334,125.480 291.334 C 125.658 291.334,125.803 291.068,125.803 290.743 C 125.803 289.868,128.456 287.435,129.129 287.694 C 129.442 287.814,129.698 288.331,129.698 288.844 C 129.698 289.357,129.873 289.776,130.088 289.776 C 130.302 289.776,130.477 290.127,130.477 290.555 C 130.477 290.983,130.652 291.334,130.867 291.334 C 131.081 291.334,131.256 291.772,131.256 292.308 C 131.256 292.914,131.477 293.281,131.840 293.281 C 132.204 293.281,132.425 293.649,132.425 294.255 C 132.425 294.791,132.600 295.229,132.814 295.229 C 133.028 295.229,133.204 295.579,133.204 296.008 C 133.204 296.436,133.379 296.787,133.593 296.787 C 133.807 296.787,133.982 297.008,133.982 297.278 C 133.982 297.548,134.421 298.241,134.956 298.819 C 135.492 299.396,135.935 300.095,135.942 300.372 C 135.959 301.068,136.895 302.240,137.433 302.240 C 137.678 302.240,137.878 302.546,137.878 302.921 C 137.878 303.718,139.518 305.745,140.162 305.745 C 140.405 305.745,140.604 305.969,140.604 306.243 C 140.604 306.517,140.954 306.994,141.383 307.303 C 141.811 307.612,142.162 308.055,142.162 308.289 C 142.162 308.800,144.448 311.198,144.937 311.198 C 145.127 311.198,146.318 312.249,147.583 313.535 C 148.849 314.820,150.162 315.871,150.502 315.871 C 150.842 315.871,151.120 316.047,151.120 316.261 C 151.120 316.475,151.364 316.650,151.662 316.650 C 151.961 316.650,152.306 316.913,152.429 317.235 C 152.552 317.556,152.922 317.819,153.250 317.819 C 153.578 317.819,153.846 317.994,153.846 318.208 C 153.846 318.423,154.109 318.598,154.430 318.598 C 154.752 318.598,155.015 318.773,155.015 318.987 C 155.015 319.202,155.346 319.377,155.752 319.377 C 156.157 319.377,156.590 319.640,156.713 319.961 C 156.837 320.282,157.294 320.545,157.729 320.545 C 158.164 320.545,158.520 320.721,158.520 320.935 C 158.520 321.149,158.958 321.324,159.494 321.324 C 160.029 321.324,160.467 321.500,160.467 321.714 C 160.467 321.928,160.818 322.103,161.246 322.103 C 161.675 322.103,162.025 322.278,162.025 322.493 C 162.025 322.707,162.445 322.882,162.957 322.882 C 163.470 322.882,163.990 323.145,164.114 323.466 C 164.243 323.804,164.826 324.051,165.495 324.051 C 166.132 324.051,166.761 324.226,166.894 324.440 C 167.026 324.654,167.640 324.830,168.257 324.830 C 168.874 324.830,169.488 325.005,169.620 325.219 C 169.753 325.433,170.477 325.609,171.229 325.609 C 171.981 325.609,172.860 325.871,173.181 326.193 C 173.569 326.581,174.541 326.777,176.075 326.777 C 177.354 326.777,178.384 326.951,178.384 327.167 C 178.384 327.399,179.877 327.556,182.084 327.556 C 184.291 327.556,185.784 327.713,185.784 327.945 C 185.784 328.192,188.705 328.335,193.768 328.335 C 198.832 328.335,201.753 328.192,201.753 327.945 C 201.753 327.721,202.978 327.556,204.651 327.556 C 206.245 327.556,207.657 327.381,207.790 327.167 C 207.922 326.952,208.990 326.777,210.162 326.777 C 211.697 326.777,212.356 326.614,212.517 326.193 C 212.656 325.832,213.248 325.609,214.063 325.609 C 214.790 325.609,215.385 325.433,215.385 325.219 C 215.385 325.005,215.998 324.830,216.748 324.830 C 217.498 324.830,218.111 324.654,218.111 324.440 C 218.111 324.226,218.724 324.051,219.474 324.051 C 220.426 324.051,220.837 323.874,220.837 323.466 C 220.837 323.142,221.184 322.882,221.616 322.882 C 222.045 322.882,222.395 322.707,222.395 322.493 C 222.395 322.278,222.833 322.103,223.369 322.103 C 223.905 322.103,224.343 321.928,224.343 321.714 C 224.343 321.500,224.579 321.324,224.867 321.324 C 225.648 321.324,227.848 320.153,227.848 319.738 C 227.848 319.539,228.111 319.377,228.432 319.377 C 228.754 319.377,229.017 319.202,229.017 318.987 C 229.017 318.773,229.264 318.598,229.567 318.598 C 229.870 318.598,230.750 317.984,231.522 317.235 C 232.294 316.485,233.102 315.871,233.317 315.871 C 233.801 315.871,240.312 309.343,240.312 308.858 C 240.312 308.665,240.750 308.069,241.285 307.533 C 241.821 306.997,242.259 306.395,242.259 306.194 C 242.259 305.993,242.522 305.727,242.843 305.604 C 243.165 305.481,243.427 305.111,243.427 304.783 C 243.427 304.455,243.603 304.187,243.817 304.187 C 244.031 304.187,244.206 303.924,244.206 303.603 C 244.206 303.281,244.382 303.019,244.596 303.019 C 244.810 303.019,244.985 302.687,244.985 302.281 C 244.985 301.876,245.248 301.443,245.570 301.320 C 245.891 301.196,246.154 300.820,246.154 300.483 C 246.154 300.146,246.504 299.494,246.933 299.034 C 247.361 298.574,247.712 297.899,247.712 297.534 C 247.712 297.169,247.975 296.769,248.296 296.646 C 248.617 296.523,248.880 296.076,248.880 295.654 C 248.880 295.231,249.056 294.777,249.270 294.645 C 249.484 294.512,249.659 293.976,249.659 293.453 C 249.659 292.930,249.834 292.502,250.049 292.502 C 250.263 292.502,250.438 292.064,250.438 291.529 C 250.438 290.923,250.659 290.555,251.022 290.555 C 251.386 290.555,251.607 290.187,251.607 289.581 C 251.607 289.046,251.694 288.608,251.801 288.608 C 252.054 288.608,255.112 291.663,255.112 291.915 C 255.112 292.103,256.381 293.662,257.352 294.669 C 257.619 294.946,257.838 295.286,257.838 295.424 C 257.838 295.828,258.915 296.787,259.368 296.787 C 259.598 296.787,259.786 297.050,259.786 297.371 C 259.786 297.692,259.961 297.955,260.175 297.955 C 260.389 297.955,260.565 298.233,260.565 298.572 C 260.565 298.911,261.178 299.784,261.928 300.512 C 262.678 301.241,263.291 302.102,263.291 302.427 C 263.291 302.753,263.466 303.019,263.681 303.019 C 263.895 303.019,264.070 303.206,264.070 303.436 C 264.070 303.975,265.061 304.966,265.600 304.966 C 265.830 304.966,266.018 305.316,266.018 305.745 C 266.018 306.173,266.193 306.524,266.407 306.524 C 266.621 306.524,266.796 306.712,266.796 306.941 C 266.796 307.480,267.787 308.471,268.327 308.471 C 268.556 308.471,268.744 308.734,268.744 309.056 C 268.744 309.377,268.919 309.640,269.133 309.640 C 269.348 309.640,269.523 309.926,269.523 310.275 C 269.523 310.625,270.136 311.489,270.886 312.197 C 271.636 312.904,272.249 313.757,272.249 314.093 C 272.249 314.428,272.425 314.703,272.639 314.703 C 272.853 314.703,273.028 314.966,273.028 315.287 C 273.028 315.609,273.216 315.871,273.446 315.871 C 274.076 315.871,274.976 316.902,274.976 317.624 C 274.976 318.296,275.861 319.377,276.411 319.377 C 276.588 319.377,276.984 319.946,277.291 320.643 C 277.924 322.078,278.621 322.882,279.232 322.882 C 279.462 322.882,279.649 323.282,279.649 323.770 C 279.649 324.258,280.000 324.910,280.428 325.219 C 280.857 325.528,281.207 325.930,281.207 326.112 C 281.207 326.294,281.426 326.687,281.694 326.986 C 282.850 328.275,283.155 328.715,283.155 329.097 C 283.155 329.321,283.330 329.503,283.544 329.503 C 283.759 329.503,283.934 329.854,283.934 330.282 C 283.934 330.711,284.069 331.061,284.235 331.061 C 284.400 331.061,284.866 331.675,285.270 332.425 C 285.674 333.174,286.152 333.788,286.332 333.788 C 286.513 333.788,286.666 334.094,286.673 334.469 C 286.688 335.311,287.565 336.514,288.164 336.514 C 288.408 336.514,288.608 336.952,288.608 337.488 C 288.608 338.023,288.783 338.462,288.997 338.462 C 289.211 338.462,289.387 338.802,289.387 339.218 C 289.387 339.633,289.562 340.082,289.776 340.214 C 289.990 340.347,290.166 340.795,290.166 341.211 C 290.166 341.627,290.428 341.967,290.750 341.967 C 291.113 341.967,291.334 342.335,291.334 342.941 C 291.334 343.476,291.509 343.914,291.723 343.914 C 291.938 343.914,292.113 344.693,292.113 345.644 C 292.113 346.595,292.288 347.482,292.502 347.614 C 292.717 347.747,292.892 348.533,292.892 349.362 C 292.892 350.191,293.155 351.132,293.476 351.454 C 293.866 351.843,294.060 352.817,294.060 354.380 C 294.060 355.668,294.236 356.830,294.450 356.962 C 294.664 357.094,294.839 358.419,294.839 359.906 C 294.839 361.449,295.007 362.610,295.229 362.610 C 295.456 362.610,295.618 363.912,295.618 365.738 C 295.618 368.159,295.750 368.916,296.203 369.090 C 296.638 369.257,296.787 369.950,296.787 371.804 C 296.787 373.204,296.957 374.294,297.176 374.294 C 297.390 374.294,297.566 374.732,297.566 375.268 C 297.566 375.803,297.741 376.241,297.955 376.241 C 298.169 376.241,298.345 376.773,298.345 377.422 C 298.345 378.112,298.587 378.696,298.929 378.827 C 299.250 378.950,299.513 379.432,299.513 379.897 C 299.513 380.363,299.864 380.996,300.292 381.305 C 300.721 381.614,301.071 382.090,301.071 382.364 C 301.071 382.638,301.229 382.863,301.422 382.863 C 301.614 382.863,302.359 383.434,303.077 384.131 C 303.795 384.829,304.864 385.647,305.453 385.950 C 306.042 386.252,306.524 386.645,306.524 386.823 C 306.524 387.001,307.028 387.147,307.645 387.147 C 308.261 387.147,308.984 387.410,309.250 387.731 C 309.517 388.053,310.225 388.315,310.823 388.315 C 311.422 388.315,311.985 388.535,312.074 388.802 C 312.199 389.177,314.867 389.289,323.661 389.289 C 332.454 389.289,335.123 389.177,335.248 388.802 C 335.337 388.535,335.813 388.315,336.304 388.315 C 336.796 388.315,337.416 388.053,337.683 387.731 C 337.949 387.410,338.409 387.147,338.704 387.147 C 338.999 387.147,339.241 386.972,339.241 386.758 C 339.241 386.543,339.549 386.368,339.927 386.368 C 340.305 386.368,340.943 385.930,341.345 385.394 C 341.747 384.859,342.275 384.421,342.519 384.421 C 343.160 384.421,345.185 382.454,345.830 381.206 C 346.134 380.618,346.528 380.136,346.707 380.136 C 346.885 380.136,347.030 379.949,347.030 379.719 C 347.030 379.489,347.249 379.057,347.517 378.759 C 348.673 377.470,348.978 377.029,348.978 376.647 C 348.978 376.424,349.153 376.241,349.367 376.241 C 349.581 376.241,349.757 375.628,349.757 374.878 C 349.757 373.926,349.933 373.515,350.341 373.515 C 350.662 373.515,350.925 373.175,350.925 372.759 C 350.925 372.343,351.100 371.895,351.315 371.762 C 351.529 371.630,351.704 371.006,351.704 370.376 C 351.704 369.746,351.879 369.231,352.093 369.231 C 352.308 369.231,352.483 368.373,352.483 367.325 C 352.483 365.990,352.658 365.352,353.067 365.195 C 353.389 365.072,353.653 364.746,353.654 364.472 C 353.659 363.700,355.555 362.999,357.636 362.999 C 358.950 362.999,359.586 362.823,359.742 362.415 C 359.903 361.995,360.559 361.831,362.067 361.831 C 363.222 361.831,364.167 361.655,364.167 361.441 C 364.167 361.227,365.044 361.052,366.115 361.052 C 367.186 361.052,368.062 360.876,368.062 360.662 C 368.062 360.448,368.663 360.273,369.398 360.273 C 370.132 360.273,370.996 360.010,371.317 359.688 C 371.639 359.367,372.440 359.104,373.098 359.104 C 373.756 359.104,374.294 358.929,374.294 358.715 C 374.294 358.500,374.907 358.325,375.657 358.325 C 376.407 358.325,377.020 358.150,377.020 357.936 C 377.020 357.722,377.446 357.546,377.966 357.546 C 378.487 357.546,379.175 357.283,379.496 356.962 C 379.818 356.641,380.356 356.378,380.693 356.378 C 381.029 356.378,381.305 356.203,381.305 355.988 C 381.305 355.774,381.918 355.599,382.668 355.599 C 383.418 355.599,384.031 355.424,384.031 355.209 C 384.031 354.995,384.387 354.820,384.822 354.820 C 385.258 354.820,385.714 354.557,385.838 354.236 C 385.961 353.914,386.350 353.648,386.702 353.643 C 387.054 353.638,387.780 353.291,388.315 352.872 C 388.851 352.454,389.484 352.107,389.721 352.102 C 389.959 352.097,390.483 351.655,390.885 351.120 C 391.287 350.584,391.925 350.146,392.303 350.146 C 392.680 350.146,392.989 349.971,392.989 349.757 C 392.989 349.542,393.252 349.367,393.574 349.367 C 393.895 349.367,394.158 349.168,394.158 348.926 C 394.158 348.459,396.094 346.642,396.592 346.641 C 396.753 346.641,396.884 346.378,396.884 346.056 C 396.884 345.735,397.059 345.472,397.274 345.472 C 397.488 345.472,397.663 345.140,397.663 344.735 C 397.663 344.329,397.926 343.897,398.247 343.773 C 398.569 343.650,398.832 343.208,398.832 342.791 C 398.832 342.373,399.051 341.959,399.318 341.870 C 400.139 341.596,400.264 328.655,399.454 327.844 C 399.112 327.502,398.832 326.941,398.832 326.598 C 398.832 326.255,398.569 325.873,398.247 325.749 C 397.926 325.626,397.663 325.193,397.663 324.788 C 397.663 324.382,397.526 324.051,397.358 324.051 C 397.190 324.051,396.720 323.481,396.314 322.785 C 395.908 322.089,395.257 321.236,394.867 320.889 C 394.477 320.543,394.158 320.061,394.158 319.818 C 394.158 319.575,393.982 319.377,393.768 319.377 C 393.554 319.377,393.379 319.108,393.379 318.780 C 393.379 318.452,393.116 318.083,392.795 317.960 C 392.473 317.836,392.210 317.571,392.210 317.370 C 392.210 316.873,390.397 315.093,389.891 315.093 C 389.667 315.093,389.484 314.909,389.484 314.685 C 389.484 314.179,387.704 312.366,387.206 312.366 C 387.005 312.366,386.740 312.103,386.617 311.782 C 386.493 311.461,386.124 311.198,385.796 311.198 C 385.468 311.198,385.200 311.022,385.200 310.808 C 385.200 310.594,384.937 310.419,384.615 310.419 C 384.294 310.419,384.031 310.243,384.031 310.029 C 384.031 309.815,383.699 309.640,383.294 309.640 C 382.888 309.640,382.456 309.377,382.332 309.056 C 382.209 308.734,381.752 308.471,381.317 308.471 C 380.882 308.471,380.526 308.296,380.526 308.082 C 380.526 307.868,379.737 307.692,378.773 307.692 C 377.809 307.692,377.020 307.517,377.020 307.303 C 377.020 306.782,367.800 306.782,367.478 307.303 C 367.346 307.517,366.547 307.692,365.702 307.692 C 364.858 307.692,364.167 307.868,364.167 308.082 C 364.167 308.296,363.567 308.471,362.832 308.471 C 362.098 308.471,361.234 308.734,360.913 309.056 C 360.591 309.377,359.888 309.640,359.350 309.640 C 358.812 309.640,358.263 309.815,358.130 310.029 C 357.998 310.243,357.550 310.419,357.134 310.419 C 356.718 310.419,356.378 310.594,356.378 310.808 C 356.378 311.022,355.764 311.198,355.015 311.198 C 354.063 311.198,353.651 311.374,353.651 311.782 C 353.651 312.190,353.240 312.366,352.288 312.366 C 351.538 312.366,350.925 312.541,350.925 312.756 C 350.925 312.970,350.312 313.145,349.562 313.145 C 348.812 313.145,348.199 313.320,348.199 313.535 C 348.199 313.749,347.492 313.924,346.628 313.924 C 345.592 313.924,344.982 314.123,344.834 314.508 C 344.573 315.188,338.072 315.385,338.072 314.713 C 338.072 314.504,337.301 313.982,336.358 313.552 C 335.416 313.123,333.933 312.067,333.063 311.206 C 332.193 310.344,331.336 309.640,331.158 309.640 C 330.980 309.640,330.184 309.026,329.389 308.277 C 328.594 307.527,327.865 306.913,327.770 306.913 C 327.674 306.913,327.123 306.475,326.545 305.940 C 325.968 305.404,325.333 304.966,325.134 304.966 C 324.725 304.966,323.661 303.982,323.661 303.603 C 323.661 303.240,322.606 302.240,322.223 302.240 C 322.045 302.240,321.550 301.772,321.125 301.202 C 320.156 299.903,319.766 299.513,318.467 298.544 C 317.897 298.119,317.429 297.549,317.429 297.279 C 317.429 297.008,317.258 296.787,317.049 296.787 C 316.573 296.787,303.019 283.202,303.019 282.725 C 303.019 282.533,302.797 282.376,302.527 282.376 C 302.256 282.376,301.687 281.904,301.261 281.327 C 300.835 280.749,300.155 280.005,299.750 279.671 C 299.344 279.338,298.731 278.739,298.386 278.340 C 297.324 277.109,296.951 276.755,295.877 275.954 C 295.306 275.529,294.839 275.034,294.839 274.855 C 294.839 274.473,293.839 273.418,293.476 273.418 C 293.151 273.418,292.113 272.380,292.113 272.055 C 292.113 271.688,291.056 270.691,290.667 270.691 C 290.483 270.691,290.042 270.209,289.685 269.620 C 289.328 269.031,288.621 268.078,288.115 267.501 C 287.608 266.925,286.857 266.005,286.445 265.456 C 286.033 264.908,285.475 264.460,285.205 264.460 C 284.934 264.460,284.713 264.276,284.713 264.052 C 284.713 263.524,282.922 261.733,282.394 261.733 C 282.170 261.733,281.986 261.553,281.986 261.332 C 281.986 261.111,280.979 259.892,279.747 258.623 C 277.152 255.950,276.534 255.235,276.534 254.908 C 276.534 254.778,275.394 253.549,274.002 252.177 C 272.610 250.805,271.470 249.502,271.470 249.281 C 271.470 249.061,271.283 248.880,271.053 248.880 C 270.530 248.880,269.523 247.896,269.523 247.384 C 269.523 247.172,268.909 246.368,268.160 245.596 C 267.410 244.824,266.796 244.095,266.796 243.977 C 266.796 243.678,265.740 242.648,265.433 242.648 C 265.043 242.648,264.070 241.579,264.070 241.151 C 264.070 240.939,263.851 240.664,263.583 240.539 C 263.194 240.357,263.194 240.266,263.583 240.084 C 263.904 239.935,264.070 238.938,264.070 237.163 C 264.070 235.627,264.237 234.469,264.460 234.469 C 264.675 234.469,264.849 233.445,264.849 232.174 C 264.849 230.493,265.005 229.819,265.433 229.655 C 265.819 229.507,266.018 228.897,266.018 227.860 C 266.018 226.997,266.193 226.290,266.407 226.290 C 266.621 226.290,266.796 225.852,266.796 225.316 C 266.796 224.781,266.972 224.343,267.186 224.343 C 267.400 224.343,267.575 224.011,267.575 223.605 C 267.575 223.200,267.838 222.767,268.160 222.644 C 268.481 222.521,268.744 222.179,268.744 221.884 C 268.744 221.283,272.396 217.332,272.952 217.332 C 273.149 217.332,274.157 216.543,275.192 215.579 C 276.227 214.615,277.215 213.827,277.388 213.827 C 277.561 213.827,277.702 213.564,277.702 213.242 C 277.702 212.918,278.048 212.658,278.481 212.658 C 278.909 212.658,279.260 212.483,279.260 212.269 C 279.260 212.055,279.448 211.879,279.677 211.879 C 280.131 211.879,281.207 210.920,281.207 210.516 C 281.207 210.191,282.246 209.153,282.571 209.153 C 282.708 209.153,283.052 208.934,283.334 208.666 C 283.617 208.398,284.337 207.829,284.936 207.400 C 286.279 206.439,290.166 202.689,290.166 202.354 C 290.166 202.219,290.344 201.898,290.563 201.639 C 292.448 199.406,292.891 198.742,292.891 198.150 C 292.892 197.775,293.155 197.468,293.476 197.468 C 293.797 197.468,294.060 197.205,294.060 196.884 C 294.060 196.563,294.236 196.300,294.450 196.300 C 294.664 196.300,294.839 195.960,294.839 195.544 C 294.839 195.128,295.015 194.680,295.229 194.547 C 295.443 194.415,295.618 194.041,295.618 193.717 C 295.618 193.393,295.881 192.865,296.203 192.544 C 296.524 192.223,296.787 191.545,296.787 191.037 C 296.787 190.529,296.962 190.006,297.176 189.873 C 297.390 189.741,297.566 188.942,297.566 188.098 C 297.566 187.254,297.741 186.563,297.955 186.563 C 298.171 186.563,298.345 185.535,298.345 184.258 C 298.345 182.761,298.515 181.897,298.832 181.792 C 299.640 181.524,299.749 166.144,298.952 164.927 C 298.515 164.260,298.345 163.012,298.345 160.481 C 298.345 158.395,298.186 156.962,297.955 156.962 C 297.728 156.962,297.566 155.671,297.566 153.869 C 297.566 152.168,297.390 150.668,297.176 150.536 C 296.962 150.403,296.787 149.529,296.787 148.593 C 296.787 147.599,296.544 146.648,296.203 146.307 C 295.875 145.979,295.618 145.027,295.618 144.137 C 295.618 143.265,295.443 142.551,295.229 142.551 C 295.015 142.551,294.839 141.938,294.839 141.188 C 294.839 140.438,294.664 139.825,294.450 139.825 C 294.236 139.825,294.060 139.224,294.060 138.489 C 294.060 137.755,293.797 136.891,293.476 136.570 C 293.155 136.248,292.892 135.545,292.892 135.007 C 292.892 134.469,292.717 133.920,292.502 133.788 C 292.288 133.655,292.113 133.119,292.113 132.596 C 292.113 132.073,291.938 131.646,291.723 131.646 C 291.509 131.646,291.334 131.226,291.334 130.714 C 291.334 130.201,291.071 129.681,290.750 129.557 C 290.408 129.426,290.166 128.843,290.166 128.152 C 290.166 127.503,289.990 126.972,289.776 126.972 C 289.562 126.972,289.387 126.534,289.387 125.998 C 289.387 125.463,289.211 125.024,288.997 125.024 C 288.783 125.024,288.608 124.674,288.608 124.245 C 288.608 123.813,288.348 123.466,288.023 123.466 C 287.660 123.466,287.439 123.099,287.439 122.493 C 287.439 121.957,287.264 121.519,287.050 121.519 C 286.835 121.519,286.660 121.168,286.660 120.740 C 286.660 120.312,286.485 119.961,286.271 119.961 C 286.056 119.961,285.881 119.605,285.881 119.170 C 285.881 118.735,285.618 118.278,285.297 118.154 C 284.976 118.031,284.713 117.686,284.713 117.388 C 284.713 117.089,284.537 116.845,284.323 116.845 C 284.109 116.845,283.934 116.570,283.934 116.233 C 283.934 115.534,283.024 114.508,282.404 114.508 C 282.174 114.508,281.986 114.109,281.986 113.621 C 281.986 113.132,281.636 112.480,281.207 112.171 C 280.779 111.863,280.423 111.342,280.416 111.014 C 280.400 110.244,279.496 109.056,278.925 109.056 C 278.681 109.056,278.477 108.836,278.473 108.569 C 278.468 108.301,277.855 107.558,277.109 106.917 C 276.364 106.276,275.755 105.554,275.755 105.313 C 275.755 104.676,269.310 98.150,268.681 98.150 C 268.390 98.150,267.628 97.540,266.988 96.795 C 266.347 96.050,265.679 95.437,265.503 95.432 C 265.072 95.421,264.070 94.396,264.070 93.966 C 264.070 93.777,263.457 93.381,262.707 93.087 C 261.957 92.792,261.344 92.409,261.344 92.235 C 261.344 92.061,261.100 91.918,260.801 91.918 C 260.503 91.918,260.158 91.655,260.034 91.334 C 259.911 91.013,259.542 90.750,259.214 90.750 C 258.886 90.750,258.617 90.574,258.617 90.360 C 258.617 90.146,258.267 89.971,257.838 89.971 C 257.410 89.971,257.059 89.796,257.059 89.581 C 257.059 89.367,256.815 89.192,256.517 89.192 C 256.218 89.192,255.873 88.929,255.750 88.608 C 255.627 88.286,255.258 88.023,254.929 88.023 C 254.601 88.023,254.333 87.881,254.333 87.707 C 254.333 87.532,253.727 87.152,252.986 86.861 C 252.245 86.571,251.550 86.100,251.440 85.815 C 251.331 85.530,250.886 85.297,250.450 85.297 C 250.015 85.297,249.659 85.122,249.659 84.907 C 249.659 84.693,249.221 84.518,248.685 84.518 C 248.150 84.518,247.712 84.343,247.712 84.129 C 247.712 83.914,247.383 83.739,246.981 83.739 C 246.578 83.739,246.031 83.476,245.764 83.155 C 245.498 82.833,244.863 82.571,244.353 82.571 C 243.844 82.571,243.427 82.395,243.427 82.181 C 243.427 81.967,242.989 81.792,242.454 81.792 C 241.918 81.792,241.480 81.616,241.480 81.402 C 241.480 81.188,240.867 81.013,240.117 81.013 C 239.214 81.013,238.754 80.830,238.754 80.473 C 238.754 79.967,238.068 79.737,234.953 79.198 C 234.254 79.078,233.587 78.823,233.469 78.633 C 233.351 78.442,232.652 78.286,231.915 78.286 C 230.983 78.286,230.574 78.108,230.574 77.702 C 230.574 77.269,230.120 77.118,228.822 77.118 C 227.858 77.118,227.069 76.943,227.069 76.728 C 227.069 76.514,226.378 76.339,225.534 76.339 C 224.690 76.339,223.891 76.164,223.759 75.949 C 223.626 75.735,222.477 75.560,221.204 75.560 C 219.407 75.560,218.890 75.429,218.890 74.976 C 218.890 74.528,218.395 74.391,216.771 74.391 C 215.605 74.391,214.543 74.216,214.411 74.002 C 214.279 73.788,213.129 73.612,211.856 73.612 C 210.573 73.612,209.542 73.439,209.542 73.223 C 209.542 72.987,207.865 72.833,205.290 72.833 C 202.235 72.833,200.993 72.696,200.876 72.347 C 200.752 71.974,198.355 71.860,190.652 71.860 C 182.949 71.860,180.552 71.974,180.428 72.347 C 180.307 72.710,178.641 72.833,173.872 72.833 C 169.869 72.833,167.478 72.979,167.478 73.223 C 167.478 73.452,166.123 73.612,164.190 73.612 C 162.382 73.612,160.795 73.788,160.662 74.002 C 160.530 74.216,159.226 74.391,157.766 74.391 C 155.880 74.391,154.969 74.561,154.625 74.976 C 154.315 75.349,153.454 75.560,152.241 75.560 C 151.196 75.560,150.341 75.735,150.341 75.949 C 150.341 76.164,149.552 76.339,148.588 76.339 C 147.624 76.339,146.835 76.514,146.835 76.728 C 146.835 76.943,146.222 77.118,145.472 77.118 C 144.520 77.118,144.109 77.294,144.109 77.702 C 144.109 78.110,143.698 78.286,142.746 78.286 C 141.996 78.286,141.383 78.462,141.383 78.676 C 141.383 78.890,140.769 79.065,140.019 79.065 C 139.270 79.065,138.656 79.241,138.656 79.455 C 138.656 79.669,138.125 79.844,137.476 79.844 C 136.785 79.844,136.202 80.087,136.071 80.428 C 135.947 80.750,135.427 81.013,134.915 81.013 C 134.402 81.013,133.982 81.169,133.982 81.360 C 133.982 81.550,133.357 81.779,132.592 81.869 C 131.103 82.043,129.698 81.206,129.698 80.145 C 129.698 79.825,129.260 79.235,128.724 78.833 C 128.189 78.430,127.751 77.880,127.751 77.610 C 127.751 77.339,127.575 77.118,127.361 77.118 C 127.147 77.118,126.972 76.894,126.972 76.620 C 126.972 76.346,126.665 75.855,126.290 75.527 C 125.915 75.200,125.258 74.440,124.830 73.840 C 124.401 73.239,123.832 72.516,123.564 72.234 C 123.296 71.952,123.077 71.613,123.077 71.480 C 123.077 71.348,122.683 70.818,122.201 70.303 C 120.800 68.805,120.351 68.215,120.351 67.873 C 120.351 67.697,120.000 67.300,119.572 66.991 C 119.143 66.682,118.793 66.281,118.793 66.098 C 118.793 65.916,118.574 65.523,118.306 65.224 C 117.257 64.055,116.845 63.509,116.845 63.290 C 116.845 63.164,116.407 62.623,115.871 62.087 C 115.336 61.552,114.898 60.929,114.898 60.703 C 114.898 60.478,114.372 59.802,113.729 59.202 C 113.087 58.601,112.561 57.925,112.561 57.700 C 112.561 57.474,112.155 56.884,111.660 56.388 C 111.164 55.893,110.508 54.921,110.202 54.229 C 109.895 53.536,109.424 52.970,109.155 52.970 C 108.886 52.970,108.666 52.707,108.666 52.386 C 108.666 52.064,108.491 51.801,108.277 51.801 C 108.062 51.801,107.887 51.515,107.887 51.164 C 107.887 50.814,107.449 50.121,106.913 49.625 C 106.378 49.129,105.940 48.490,105.940 48.206 C 105.940 47.922,105.589 47.436,105.161 47.128 C 104.732 46.819,104.382 46.167,104.382 45.678 C 104.382 45.149,104.146 44.791,103.797 44.791 C 103.434 44.791,103.213 44.423,103.213 43.817 C 103.213 43.281,103.038 42.843,102.824 42.843 C 102.610 42.843,102.434 42.493,102.434 42.064 C 102.434 41.636,102.259 41.285,102.045 41.285 C 101.831 41.285,101.655 40.847,101.655 40.312 C 101.655 39.706,101.435 39.338,101.071 39.338 C 100.631 39.338,100.487 38.864,100.487 37.413 C 100.487 36.355,100.312 35.381,100.097 35.248 C 99.883 35.116,99.708 34.415,99.708 33.690 C 99.708 32.966,99.533 32.265,99.318 32.132 C 99.104 32.000,98.929 31.387,98.929 30.769 C 98.929 30.152,98.754 29.538,98.539 29.406 C 98.325 29.274,98.150 28.669,98.150 28.062 C 98.150 27.440,97.895 26.860,97.566 26.734 C 97.224 26.602,96.981 26.019,96.981 25.329 C 96.981 24.679,96.806 24.148,96.592 24.148 C 96.378 24.148,96.203 23.710,96.203 23.174 C 96.203 22.639,96.027 22.201,95.813 22.201 C 95.599 22.201,95.424 21.775,95.424 21.255 C 95.424 20.734,95.194 20.077,94.913 19.794 C 94.632 19.511,94.151 18.710,93.844 18.014 C 93.537 17.317,93.154 16.748,92.992 16.748 C 92.830 16.748,92.697 16.392,92.697 15.957 C 92.697 15.521,92.434 15.065,92.113 14.941 C 91.792 14.818,91.529 14.385,91.529 13.980 C 91.529 13.574,91.353 13.242,91.139 13.242 C 90.925 13.242,90.750 13.055,90.750 12.825 C 90.750 12.596,90.531 12.164,90.263 11.865 C 89.232 10.715,88.802 10.152,88.802 9.948 C 88.802 9.565,84.137 5.063,83.739 5.063 C 83.525 5.063,83.350 4.876,83.350 4.646 C 83.350 4.019,82.321 3.116,81.608 3.116 C 81.263 3.116,80.620 2.780,80.179 2.369 C 79.738 1.959,78.915 1.507,78.349 1.365 C 77.783 1.223,77.197 0.906,77.045 0.662 C 76.769 0.215,63.201 -0.108,59.786 0.251 M72.328 8.617 C 75.578 9.922,77.785 11.325,79.608 13.242 C 81.444 15.175,84.907 19.874,84.907 20.434 C 84.907 20.557,85.316 21.312,85.816 22.111 C 86.315 22.910,87.224 24.878,87.836 26.485 C 88.447 28.092,89.059 29.581,89.194 29.796 C 89.330 30.010,89.668 30.974,89.946 31.938 C 90.223 32.902,90.596 34.129,90.774 34.664 C 90.951 35.200,91.380 36.777,91.727 38.169 C 92.074 39.562,92.554 41.402,92.793 42.259 C 94.045 46.737,99.182 54.889,108.622 67.381 C 111.294 70.915,115.060 75.910,116.993 78.481 C 118.925 81.052,120.612 83.242,120.741 83.350 C 121.607 84.070,123.502 87.261,123.279 87.623 C 123.006 88.064,116.614 92.308,116.221 92.308 C 116.019 92.308,113.335 94.237,112.950 94.659 C 112.843 94.777,111.266 96.118,109.445 97.640 C 107.624 99.161,105.265 101.300,104.202 102.394 C 101.695 104.972,102.191 105.168,96.165 99.221 C 73.106 76.466,67.549 73.289,53.749 74.973 C 47.266 75.764,44.738 76.162,41.480 76.908 C 28.470 79.888,20.639 80.334,16.301 78.343 C 7.589 74.344,5.039 54.693,12.232 46.978 C 16.229 42.690,20.574 41.491,32.132 41.485 C 40.645 41.480,42.086 41.607,47.712 42.850 C 48.569 43.040,50.146 43.379,51.217 43.604 C 52.288 43.829,54.291 44.280,55.667 44.606 C 59.258 45.457,59.340 45.091,56.822 39.439 C 56.417 38.531,56.086 37.682,56.086 37.551 C 56.086 37.420,55.843 36.761,55.547 36.086 C 51.508 26.882,51.640 16.704,55.854 12.450 C 57.323 10.966,60.874 8.960,62.045 8.952 C 62.516 8.949,63.165 8.776,63.486 8.569 C 64.295 8.046,70.998 8.082,72.328 8.617 M205.788 81.988 C 213.615 83.051,222.929 85.285,227.653 87.232 C 228.082 87.409,229.396 87.940,230.574 88.413 C 235.983 90.584,241.085 93.143,245.570 95.935 C 248.401 97.698,256.555 103.594,257.889 104.843 C 258.190 105.125,259.720 106.550,261.289 108.011 C 265.498 111.930,272.639 120.257,272.639 121.247 C 272.639 121.361,273.452 122.827,274.446 124.505 C 275.440 126.183,276.853 128.870,277.586 130.477 C 278.319 132.084,279.368 134.362,279.918 135.540 C 281.060 137.985,281.265 138.499,282.170 141.188 C 282.531 142.259,282.973 143.486,283.152 143.914 C 283.674 145.158,285.865 153.516,286.276 155.827 C 286.482 156.987,286.896 159.163,287.196 160.662 C 287.496 162.162,287.855 164.528,287.995 165.920 C 288.135 167.313,288.436 169.649,288.664 171.111 C 290.596 183.517,280.461 199.328,265.687 206.959 C 261.949 208.890,260.902 209.081,262.639 207.518 C 267.137 203.467,267.444 192.512,263.273 184.913 C 263.069 184.541,262.902 184.060,262.902 183.845 C 262.902 182.127,254.945 168.335,251.776 164.560 C 250.933 163.556,249.988 162.319,249.677 161.812 C 248.980 160.680,240.930 152.769,239.386 151.700 C 238.770 151.274,237.781 150.531,237.188 150.049 C 236.595 149.567,236.006 149.172,235.880 149.172 C 235.753 149.172,234.785 148.640,233.727 147.990 C 231.892 146.860,226.125 144.598,222.395 143.544 C 217.822 142.252,207.223 141.717,202.843 142.558 C 201.708 142.776,199.815 143.140,198.637 143.369 C 195.366 144.002,188.221 146.447,185.436 147.886 C 182.128 149.596,181.946 149.559,179.681 146.738 C 177.249 143.710,166.793 129.666,165.399 127.556 C 164.103 125.593,164.476 126.136,155.364 112.950 C 147.851 102.078,140.209 90.510,140.219 90.022 C 140.240 88.936,147.399 85.916,152.483 84.848 C 153.554 84.623,155.131 84.282,155.988 84.091 C 167.479 81.518,194.060 80.396,205.788 81.988 M135.061 97.398 C 137.634 101.416,143.255 109.778,147.610 116.066 C 148.277 117.030,151.674 121.938,155.158 126.972 C 160.471 134.648,166.033 142.412,167.992 144.888 C 168.431 145.443,174.218 153.060,176.559 156.164 L 177.655 157.618 177.185 163.424 C 176.242 175.066,177.487 190.351,180.069 198.850 C 185.052 215.248,194.775 224.193,209.145 225.599 C 214.235 226.097,224.687 224.601,228.822 222.784 C 229.250 222.595,231.529 221.809,233.885 221.037 C 236.241 220.265,238.520 219.484,238.948 219.301 C 239.377 219.119,240.691 218.582,241.870 218.108 C 243.938 217.275,246.945 215.952,249.550 214.728 C 250.721 214.178,250.977 214.204,253.445 215.124 C 254.897 215.665,257.098 216.325,258.336 216.590 C 259.574 216.855,260.538 217.174,260.478 217.299 C 260.419 217.424,259.800 218.666,259.104 220.058 C 257.633 223.000,257.002 225.266,255.886 231.615 C 254.750 238.081,253.154 246.837,252.774 248.685 C 252.598 249.542,252.286 251.120,252.081 252.191 C 251.876 253.262,251.352 255.891,250.917 258.033 C 250.481 260.175,250.038 262.366,249.932 262.902 C 249.676 264.196,248.162 269.852,247.744 271.081 C 247.562 271.616,247.232 272.756,247.010 273.612 C 246.020 277.445,245.604 278.848,244.703 281.402 C 244.174 282.902,243.513 284.654,243.233 285.297 C 242.953 285.940,242.341 287.342,241.872 288.413 C 232.087 310.768,215.740 320.215,188.705 319.139 C 185.920 319.028,182.853 318.787,181.889 318.602 C 180.925 318.418,178.997 318.057,177.605 317.801 C 159.303 314.427,145.318 302.322,136.904 282.571 C 136.539 281.714,136.088 280.662,135.903 280.234 C 135.528 279.366,132.649 270.642,131.148 265.823 C 130.614 264.109,129.534 260.078,128.748 256.865 C 127.962 253.651,126.977 249.620,126.558 247.907 C 126.140 246.193,125.606 243.827,125.371 242.648 C 125.137 241.470,124.809 239.893,124.641 239.143 C 124.473 238.393,123.879 235.589,123.321 232.911 C 121.812 225.681,121.689 225.251,120.318 222.446 C 118.419 218.559,114.076 214.474,106.795 209.728 C 86.695 196.624,82.854 189.346,85.302 169.001 C 85.518 167.199,85.962 163.447,86.287 160.662 C 86.859 155.756,87.023 154.736,88.033 149.757 C 88.774 146.105,91.298 137.794,92.587 134.761 C 92.905 134.012,93.303 133.048,93.471 132.619 C 98.709 119.238,110.390 105.210,122.493 97.766 C 123.992 96.844,125.833 95.692,126.582 95.207 C 128.607 93.898,130.982 92.697,131.550 92.697 C 131.826 92.697,133.406 94.813,135.061 97.398 M139.630 167.820 C 117.186 175.326,120.502 207.786,143.914 209.755 C 164.053 211.449,175.056 187.387,160.665 173.126 C 155.189 167.699,146.525 165.514,139.630 167.820 M118.414 247.988 C 118.709 249.432,120.013 254.739,120.740 257.449 C 120.940 258.199,121.469 260.365,121.914 262.263 C 122.358 264.160,123.416 267.802,124.263 270.354 C 126.069 275.797,126.057 275.678,124.921 276.927 C 124.435 277.460,123.345 278.861,122.499 280.039 C 121.653 281.217,120.858 282.269,120.732 282.376 C 120.607 282.483,119.988 283.272,119.356 284.129 C 118.725 284.985,118.033 285.874,117.819 286.104 C 117.605 286.334,116.991 287.165,116.456 287.951 C 115.920 288.738,115.351 289.382,115.190 289.384 C 115.029 289.385,114.898 289.588,114.898 289.833 C 114.898 290.079,114.315 290.999,113.602 291.878 C 110.059 296.249,100.385 310.658,98.147 314.898 C 97.582 315.969,96.587 317.809,95.935 318.987 C 94.357 321.842,92.513 325.488,91.798 327.167 C 91.479 327.916,90.443 330.195,89.496 332.230 C 88.549 334.265,87.547 336.543,87.269 337.293 C 86.992 338.043,86.347 339.581,85.836 340.712 C 85.325 341.842,84.907 342.852,84.907 342.955 C 84.907 343.059,84.573 343.887,84.163 344.795 C 81.350 351.036,80.956 353.218,80.669 364.167 C 80.516 369.966,80.263 373.606,79.977 374.099 C 79.046 375.707,77.269 376.904,74.197 377.992 C 72.983 378.422,66.322 379.416,63.194 379.635 C 55.735 380.156,51.412 374.367,51.412 363.857 L 51.412 360.053 49.562 359.537 C 48.544 359.253,46.748 358.755,45.570 358.430 C 44.391 358.105,43.033 357.685,42.551 357.498 C 42.069 357.310,41.280 357.002,40.798 356.812 C 38.938 356.080,32.244 352.735,31.810 352.320 C 31.559 352.079,30.477 351.244,29.406 350.463 C 24.691 347.026,23.190 344.299,23.226 339.241 C 23.270 333.311,24.829 330.979,30.265 328.716 C 33.960 327.178,37.029 326.389,45.375 324.829 C 46.660 324.589,48.588 324.160,49.659 323.877 C 50.730 323.593,52.483 323.149,53.554 322.891 C 54.625 322.632,55.852 322.275,56.280 322.097 C 56.709 321.920,57.936 321.469,59.007 321.096 C 62.808 319.773,67.363 315.606,73.659 307.692 C 75.448 305.443,77.003 303.515,77.114 303.408 C 77.718 302.825,81.943 297.365,83.719 294.872 C 84.851 293.283,85.935 291.793,86.127 291.561 C 86.319 291.329,87.569 289.618,88.905 287.759 C 90.241 285.900,92.259 283.096,93.390 281.528 C 94.520 279.959,98.335 274.469,101.866 269.328 C 105.397 264.187,108.532 259.630,108.833 259.202 C 109.134 258.773,110.996 255.969,112.971 252.970 C 118.012 245.317,117.891 245.428,118.414 247.988 M264.345 255.015 C 266.042 256.889,268.033 259.108,268.769 259.946 C 269.505 260.783,270.633 262.020,271.276 262.693 C 271.918 263.367,273.408 264.964,274.586 266.243 C 294.480 287.834,313.021 306.514,321.324 313.330 C 322.288 314.121,323.427 315.063,323.856 315.424 C 333.878 323.855,339.525 325.566,348.393 322.859 C 352.556 321.589,358.582 319.595,358.909 319.379 C 359.124 319.239,360.876 318.627,362.804 318.021 C 364.732 317.415,366.660 316.777,367.089 316.605 C 375.024 313.406,382.648 317.848,390.225 330.084 C 395.296 338.275,387.150 346.079,368.062 351.314 C 367.098 351.578,365.871 351.932,365.336 352.099 C 364.800 352.267,362.960 352.694,361.246 353.048 C 359.533 353.402,357.517 353.850,356.767 354.043 C 356.018 354.237,354.615 354.483,353.651 354.590 C 345.691 355.476,345.083 355.715,345.083 357.946 C 345.083 359.984,343.731 366.514,342.934 368.322 C 342.573 369.143,342.081 370.253,341.841 370.789 C 338.082 379.177,328.216 383.463,318.403 380.971 C 313.895 379.826,313.252 379.629,311.445 378.841 C 307.216 376.995,305.442 373.040,304.166 362.610 C 303.455 356.801,302.511 351.280,301.435 346.641 C 301.211 345.677,300.886 344.187,300.713 343.330 C 300.157 340.591,296.770 333.340,294.435 329.893 C 293.636 328.715,291.780 325.919,290.309 323.681 C 288.838 321.443,286.495 318.078,285.102 316.204 C 283.710 314.330,281.344 311.100,279.844 309.025 C 278.345 306.950,276.936 305.056,276.714 304.817 C 276.492 304.577,275.791 303.684,275.156 302.831 C 273.759 300.955,273.438 300.543,271.786 298.508 C 271.077 297.634,270.058 296.330,269.523 295.611 C 268.485 294.216,265.210 290.043,264.243 288.884 C 263.924 288.501,262.576 286.836,261.249 285.184 C 259.922 283.533,258.736 282.093,258.614 281.986 C 258.492 281.879,257.543 280.699,256.505 279.364 C 254.372 276.620,254.366 276.539,255.900 271.081 C 256.938 267.384,258.025 262.934,258.563 260.175 C 259.332 256.233,259.435 255.706,259.845 253.651 C 260.390 250.916,260.727 251.018,264.345 255.015 M164.091 263.296 C 162.775 263.825,162.026 265.683,162.019 268.432 C 162.011 272.040,161.944 272.066,157.928 270.097 C 152.776 267.571,150.002 267.937,149.881 271.160 C 149.785 273.717,151.194 274.781,159.883 278.710 C 161.984 279.660,162.013 279.728,162.019 283.778 C 162.026 287.832,162.468 289.466,163.793 290.335 C 166.557 292.146,169.036 289.781,169.036 285.334 C 169.036 283.921,169.172 282.765,169.339 282.765 C 169.506 282.765,171.039 283.206,172.747 283.744 C 174.455 284.283,176.465 284.896,177.215 285.108 C 179.385 285.721,186.396 287.050,187.459 287.050 C 188.634 287.050,188.900 287.658,188.900 290.351 C 188.900 296.816,195.328 296.119,195.901 289.592 L 196.105 287.266 197.858 286.956 C 203.291 285.996,206.865 285.074,211.414 283.458 C 215.641 281.957,215.774 282.025,215.774 285.704 C 215.774 290.258,218.374 292.355,221.108 290.005 C 222.187 289.078,222.202 289.001,222.328 283.991 C 222.411 280.721,222.619 278.786,222.913 278.551 C 223.164 278.351,224.684 277.495,226.290 276.649 C 232.358 273.454,233.301 272.612,233.301 270.387 C 233.301 267.159,229.999 266.460,226.095 268.862 C 222.727 270.935,222.515 270.860,222.326 267.526 C 221.898 259.953,215.774 261.539,215.774 269.224 C 215.774 273.590,215.594 274.083,213.632 275.071 C 211.320 276.236,206.791 277.839,203.116 278.794 C 202.259 279.016,200.837 279.387,199.955 279.619 C 199.073 279.850,197.802 280.039,197.131 280.039 L 195.910 280.039 195.910 275.476 C 195.910 268.552,194.402 265.875,191.239 267.185 C 189.182 268.037,188.900 268.951,188.900 274.767 L 188.900 280.039 187.347 280.039 C 185.928 280.039,184.509 279.783,180.721 278.843 C 178.345 278.253,172.014 276.262,170.497 275.627 L 169.036 275.015 169.036 270.673 C 169.036 264.226,167.494 261.925,164.091 263.296 " stroke="none" fill="#050404" fill-rule="evenodd"></path><path id="path4" d="M63.486 8.569 C 63.165 8.776,62.516 8.949,62.045 8.952 C 60.874 8.960,57.323 10.966,55.854 12.450 C 53.290 15.038,52.773 16.748,52.789 22.590 C 52.804 28.143,53.452 31.311,55.547 36.086 C 55.843 36.761,56.086 37.420,56.086 37.551 C 56.086 37.682,56.417 38.531,56.822 39.439 C 59.340 45.091,59.258 45.457,55.667 44.606 C 54.291 44.280,52.288 43.829,51.217 43.604 C 50.146 43.379,48.569 43.040,47.712 42.850 C 42.086 41.607,40.645 41.480,32.132 41.485 C 12.360 41.495,5.528 48.603,8.739 65.823 C 11.378 79.971,18.128 82.256,41.480 76.908 C 44.738 76.162,47.266 75.764,53.749 74.973 C 67.549 73.289,73.106 76.466,96.165 99.221 C 102.191 105.168,101.695 104.972,104.202 102.394 C 105.265 101.300,107.624 99.161,109.445 97.640 C 111.266 96.118,112.843 94.777,112.950 94.659 C 113.335 94.237,116.019 92.308,116.221 92.308 C 116.614 92.308,123.006 88.064,123.279 87.623 C 123.502 87.261,121.607 84.070,120.741 83.350 C 120.612 83.242,118.925 81.052,116.993 78.481 C 115.060 75.910,111.294 70.915,108.622 67.381 C 99.182 54.889,94.045 46.737,92.793 42.259 C 92.554 41.402,92.074 39.562,91.727 38.169 C 91.380 36.777,90.951 35.200,90.774 34.664 C 90.596 34.129,90.223 32.902,89.946 31.938 C 89.668 30.974,89.330 30.010,89.194 29.796 C 89.059 29.581,88.447 28.092,87.836 26.485 C 87.224 24.878,86.315 22.910,85.816 22.111 C 85.316 21.312,84.907 20.557,84.907 20.434 C 84.907 19.874,81.444 15.175,79.608 13.242 C 77.785 11.325,75.578 9.922,72.328 8.617 C 70.998 8.082,64.295 8.046,63.486 8.569 M71.200 8.990 C 76.559 10.224,83.674 17.205,85.559 23.077 C 85.679 23.452,85.932 23.759,86.121 23.759 C 86.311 23.759,86.465 24.010,86.465 24.317 C 86.465 24.624,86.922 25.983,87.481 27.336 C 88.960 30.917,88.999 31.028,90.142 34.859 C 90.717 36.787,91.352 38.902,91.553 39.560 C 91.754 40.218,91.918 41.166,91.918 41.667 C 91.918 43.441,97.209 53.099,100.259 56.893 C 100.530 57.231,101.080 58.063,101.482 58.743 C 101.884 59.424,102.350 59.981,102.518 59.981 C 102.686 59.981,102.824 60.203,102.824 60.476 C 102.824 60.749,103.325 61.581,103.937 62.326 C 104.549 63.071,107.828 67.361,111.224 71.860 C 114.620 76.358,118.457 81.414,119.751 83.095 C 123.197 87.573,123.043 87.167,121.714 88.242 C 121.071 88.762,120.412 89.189,120.250 89.190 C 119.873 89.192,113.727 93.151,112.950 93.892 C 112.628 94.199,111.489 95.149,110.418 96.004 C 107.301 98.491,105.862 99.773,103.969 101.749 C 101.680 104.137,102.348 104.440,95.826 98.053 C 88.094 90.481,83.509 86.176,81.201 84.323 C 80.134 83.466,79.071 82.590,78.838 82.376 C 78.130 81.725,75.130 79.314,73.869 78.384 C 73.216 77.902,72.453 77.507,72.174 77.507 C 71.894 77.507,71.664 77.376,71.662 77.215 C 71.656 76.657,68.671 75.441,65.433 74.678 C 63.214 74.155,53.134 74.165,50.049 74.693 C 48.763 74.913,46.591 75.276,45.222 75.500 C 42.363 75.966,39.289 76.627,37.558 77.148 C 36.900 77.345,35.918 77.507,35.376 77.507 C 34.834 77.507,33.883 77.666,33.262 77.860 C 28.844 79.241,19.434 79.206,16.358 77.798 C 13.798 76.626,10.127 71.430,10.127 68.978 C 10.127 68.553,9.951 68.097,9.737 67.965 C 9.523 67.833,9.349 67.165,9.350 66.481 C 9.352 65.798,9.146 63.880,8.893 62.220 C 8.239 57.921,9.173 52.135,10.956 49.447 C 12.503 47.113,17.017 43.622,18.487 43.622 C 18.822 43.622,19.400 43.457,19.772 43.255 C 23.821 41.058,36.379 41.217,48.296 43.618 C 49.260 43.813,50.968 44.145,52.092 44.357 C 53.216 44.570,54.284 44.835,54.465 44.947 C 55.436 45.547,59.275 45.830,59.473 45.317 C 59.680 44.777,58.726 42.036,57.016 38.256 C 56.504 37.126,56.086 35.953,56.086 35.650 C 56.086 35.347,55.910 34.991,55.696 34.859 C 55.482 34.726,55.307 34.201,55.307 33.690 C 55.307 33.180,55.151 32.666,54.960 32.549 C 54.770 32.431,54.517 31.763,54.399 31.065 C 54.281 30.367,53.985 28.744,53.742 27.459 C 53.020 23.651,53.416 17.265,54.490 15.385 C 57.385 10.318,64.743 7.502,71.200 8.990 M117.156 246.833 C 116.830 247.209,114.946 249.971,112.971 252.970 C 110.996 255.969,109.134 258.773,108.833 259.202 C 108.532 259.630,105.397 264.187,101.866 269.328 C 98.335 274.469,94.520 279.959,93.390 281.528 C 92.259 283.096,90.241 285.900,88.905 287.759 C 87.569 289.618,86.319 291.329,86.127 291.561 C 85.935 291.793,84.851 293.283,83.719 294.872 C 81.943 297.365,77.718 302.825,77.114 303.408 C 77.003 303.515,75.448 305.443,73.659 307.692 C 67.363 315.606,62.808 319.773,59.007 321.096 C 57.936 321.469,56.709 321.920,56.280 322.097 C 55.852 322.275,54.625 322.632,53.554 322.891 C 52.483 323.149,50.730 323.593,49.659 323.877 C 48.588 324.160,46.660 324.589,45.375 324.829 C 37.029 326.389,33.960 327.178,30.265 328.716 C 24.829 330.979,23.270 333.311,23.226 339.241 C 23.190 344.299,24.691 347.026,29.406 350.463 C 30.477 351.244,31.559 352.079,31.810 352.320 C 32.244 352.735,38.938 356.080,40.798 356.812 C 41.280 357.002,42.069 357.310,42.551 357.498 C 43.033 357.685,44.391 358.105,45.570 358.430 C 46.748 358.755,48.544 359.253,49.562 359.537 L 51.412 360.053 51.412 363.857 C 51.412 374.367,55.735 380.156,63.194 379.635 C 66.322 379.416,72.983 378.422,74.197 377.992 C 77.269 376.904,79.046 375.707,79.977 374.099 C 80.263 373.606,80.516 369.966,80.669 364.167 C 80.956 353.218,81.350 351.036,84.163 344.795 C 84.573 343.887,84.907 343.059,84.907 342.955 C 84.907 342.852,85.325 341.842,85.836 340.712 C 86.347 339.581,86.992 338.043,87.269 337.293 C 87.547 336.543,88.549 334.265,89.496 332.230 C 90.443 330.195,91.479 327.916,91.798 327.167 C 92.513 325.488,94.357 321.842,95.935 318.987 C 96.587 317.809,97.582 315.969,98.147 314.898 C 100.385 310.658,110.059 296.249,113.602 291.878 C 114.315 290.999,114.898 290.079,114.898 289.833 C 114.898 289.588,115.029 289.385,115.190 289.384 C 115.351 289.382,115.920 288.738,116.456 287.951 C 116.991 287.165,117.605 286.334,117.819 286.104 C 118.033 285.874,118.725 284.985,119.356 284.129 C 119.988 283.272,120.607 282.483,120.732 282.376 C 120.858 282.269,121.653 281.217,122.499 280.039 C 123.345 278.861,124.435 277.460,124.921 276.927 C 126.057 275.678,126.069 275.797,124.263 270.354 C 123.416 267.802,122.358 264.160,121.914 262.263 C 121.469 260.365,120.940 258.199,120.740 257.449 C 120.013 254.739,118.709 249.432,118.414 247.988 C 118.033 246.125,117.887 245.990,117.156 246.833 M118.011 248.393 C 118.009 248.976,119.137 253.914,120.348 258.617 C 120.541 259.367,120.986 261.207,121.337 262.707 C 121.688 264.206,122.135 265.738,122.331 266.110 C 122.527 266.482,122.687 267.128,122.687 267.547 C 122.687 267.966,122.863 268.417,123.077 268.549 C 123.291 268.682,123.466 269.295,123.466 269.912 C 123.466 270.530,123.642 271.143,123.856 271.276 C 124.070 271.408,124.245 271.865,124.245 272.292 C 124.245 272.718,124.499 273.558,124.810 274.158 C 125.356 275.216,125.046 276.266,123.878 277.313 C 123.759 277.420,122.347 279.260,120.740 281.402 C 119.133 283.544,117.722 285.385,117.604 285.492 C 117.485 285.599,116.872 286.384,116.240 287.237 C 115.609 288.089,114.876 289.053,114.612 289.379 C 114.347 289.704,112.385 292.425,110.252 295.424 C 108.119 298.423,106.189 301.088,105.962 301.347 C 105.735 301.605,105.550 301.985,105.550 302.191 C 105.550 302.396,105.414 302.623,105.248 302.694 C 104.789 302.891,98.150 313.332,98.150 313.857 C 98.150 314.108,98.019 314.315,97.858 314.317 C 97.697 314.318,97.377 314.713,97.147 315.193 C 96.707 316.109,93.666 321.876,93.092 322.882 C 92.757 323.468,91.054 327.173,89.778 330.088 C 89.403 330.944,88.649 332.610,88.101 333.788 C 87.554 334.966,86.985 336.280,86.838 336.709 C 86.486 337.731,85.968 338.952,84.744 341.651 C 84.191 342.869,83.739 344.019,83.739 344.207 C 83.739 344.394,83.414 345.237,83.017 346.081 C 82.311 347.579,81.507 349.934,80.631 353.067 C 80.391 353.924,80.066 358.871,79.909 364.060 C 79.524 376.729,79.290 376.994,66.991 378.665 C 59.788 379.643,56.110 378.382,54.246 374.294 C 52.454 370.365,52.301 369.659,51.939 363.652 L 51.708 359.826 50.489 359.303 C 49.818 359.015,48.218 358.484,46.933 358.124 C 43.306 357.107,41.901 356.635,41.500 356.298 C 41.296 356.128,40.882 355.988,40.579 355.988 C 39.279 355.988,31.999 351.933,29.741 349.951 C 29.497 349.737,28.833 349.225,28.265 348.814 C 26.953 347.864,24.537 344.592,24.537 343.765 C 24.537 343.419,24.362 343.135,24.148 343.135 C 23.588 343.135,23.670 336.603,24.251 334.956 C 25.439 331.591,28.499 329.517,34.859 327.771 C 38.756 326.701,39.863 326.429,41.285 326.194 C 42.035 326.070,43.437 325.817,44.401 325.631 C 45.365 325.445,46.855 325.174,47.712 325.028 C 48.569 324.883,50.058 324.528,51.022 324.239 C 51.986 323.951,53.564 323.508,54.528 323.254 C 56.357 322.773,56.716 322.648,59.591 321.491 C 63.617 319.870,68.704 315.168,74.519 307.690 C 77.187 304.259,80.851 299.668,81.044 299.513 C 81.178 299.406,82.402 297.741,83.764 295.813 C 85.126 293.885,86.555 291.968,86.938 291.553 C 87.321 291.137,87.634 290.668,87.634 290.509 C 87.634 290.351,87.861 289.990,88.139 289.706 C 88.695 289.139,92.997 283.191,97.066 277.361 C 98.505 275.299,99.864 273.401,100.085 273.142 C 100.306 272.883,100.487 272.569,100.487 272.444 C 100.487 272.319,100.664 272.005,100.882 271.746 C 101.954 270.468,111.392 256.545,111.392 256.241 C 111.392 256.049,111.526 255.891,111.690 255.891 C 111.853 255.891,112.160 255.550,112.371 255.133 C 114.604 250.733,118.018 246.653,118.011 248.393 M259.845 253.651 C 259.435 255.706,259.332 256.233,258.563 260.175 C 258.025 262.934,256.938 267.384,255.900 271.081 C 254.366 276.539,254.372 276.620,256.505 279.364 C 257.543 280.699,258.492 281.879,258.614 281.986 C 258.736 282.093,259.922 283.533,261.249 285.184 C 262.576 286.836,263.924 288.501,264.243 288.884 C 265.210 290.043,268.485 294.216,269.523 295.611 C 270.058 296.330,271.077 297.634,271.786 298.508 C 273.438 300.543,273.759 300.955,275.156 302.831 C 275.791 303.684,276.492 304.577,276.714 304.817 C 276.936 305.056,278.345 306.950,279.844 309.025 C 281.344 311.100,283.710 314.330,285.102 316.204 C 286.495 318.078,288.838 321.443,290.309 323.681 C 291.780 325.919,293.636 328.715,294.435 329.893 C 296.770 333.340,300.157 340.591,300.713 343.330 C 300.886 344.187,301.211 345.677,301.435 346.641 C 302.511 351.280,303.455 356.801,304.166 362.610 C 305.442 373.040,307.216 376.995,311.445 378.841 C 313.252 379.629,313.895 379.826,318.403 380.971 C 328.216 383.463,338.082 379.177,341.841 370.789 C 342.081 370.253,342.573 369.143,342.934 368.322 C 343.731 366.514,345.083 359.984,345.083 357.946 C 345.083 355.715,345.691 355.476,353.651 354.590 C 354.615 354.483,356.018 354.237,356.767 354.043 C 357.517 353.850,359.533 353.402,361.246 353.048 C 362.960 352.694,364.800 352.267,365.336 352.099 C 365.871 351.932,367.098 351.578,368.062 351.314 C 387.150 346.079,395.296 338.275,390.225 330.084 C 382.648 317.848,375.024 313.406,367.089 316.605 C 366.660 316.777,364.732 317.415,362.804 318.021 C 360.876 318.627,359.124 319.239,358.909 319.379 C 358.582 319.595,352.556 321.589,348.393 322.859 C 339.525 325.566,333.878 323.855,323.856 315.424 C 323.427 315.063,322.288 314.121,321.324 313.330 C 313.021 306.514,294.480 287.834,274.586 266.243 C 273.408 264.964,271.918 263.367,271.276 262.693 C 270.633 262.020,269.505 260.783,268.769 259.946 C 260.709 250.773,260.455 250.594,259.845 253.651 M261.734 252.678 C 261.734 253.043,264.870 256.622,270.497 262.678 C 270.925 263.139,272.141 264.473,273.198 265.643 C 274.256 266.813,277.323 270.129,280.014 273.012 C 282.705 275.895,286.047 279.478,287.439 280.975 C 296.316 290.517,317.073 310.806,321.908 314.666 C 323.408 315.863,324.722 316.931,324.830 317.041 C 324.937 317.150,325.725 317.755,326.582 318.385 C 327.439 319.015,328.228 319.636,328.335 319.764 C 329.215 320.823,333.771 323.300,336.515 324.213 C 338.730 324.949,340.908 324.843,346.835 323.709 C 349.850 323.133,357.026 320.953,359.688 319.806 C 361.395 319.070,363.671 318.268,365.336 317.816 C 366.300 317.553,367.597 317.152,368.219 316.923 C 369.808 316.338,375.218 316.402,376.523 317.020 C 377.118 317.303,378.039 317.729,378.570 317.968 C 382.636 319.799,391.659 331.689,391.326 334.777 C 390.801 339.643,386.676 343.494,377.994 347.220 C 377.137 347.588,376.086 348.039,375.657 348.223 C 375.229 348.407,373.914 348.854,372.736 349.217 C 371.558 349.579,370.419 350.002,370.204 350.157 C 369.990 350.311,369.289 350.537,368.647 350.657 C 368.004 350.778,366.777 351.050,365.920 351.262 C 357.917 353.241,356.725 353.469,347.809 354.734 C 344.965 355.138,344.837 355.251,344.527 357.636 C 343.788 363.311,343.109 366.566,342.351 368.075 C 342.140 368.497,341.792 369.189,341.577 369.615 C 341.363 370.040,341.188 370.566,341.188 370.783 C 341.188 371.455,338.425 375.199,336.872 376.631 C 332.706 380.472,326.116 381.828,318.987 380.312 C 317.381 379.971,315.540 379.604,314.898 379.498 C 308.324 378.415,306.198 374.533,304.579 360.662 C 304.183 357.272,303.386 352.561,302.652 349.270 C 301.922 345.994,301.514 344.150,301.109 342.278 C 300.891 341.271,300.550 340.132,300.351 339.747 C 300.153 339.361,299.313 337.644,298.486 335.930 C 297.658 334.216,295.668 330.798,294.062 328.335 C 292.456 325.871,291.071 323.681,290.985 323.466 C 290.839 323.105,287.654 318.504,286.941 317.624 C 286.768 317.410,285.720 316.008,284.613 314.508 C 283.506 313.009,282.462 311.723,282.293 311.652 C 282.125 311.581,281.986 311.350,281.986 311.139 C 281.986 310.817,280.297 308.326,279.649 307.692 C 279.540 307.585,278.935 306.796,278.305 305.940 C 277.675 305.083,277.061 304.294,276.941 304.187 C 276.822 304.080,276.208 303.291,275.578 302.434 C 274.948 301.577,274.335 300.789,274.215 300.682 C 274.095 300.574,273.482 299.786,272.852 298.929 C 272.222 298.072,271.604 297.283,271.478 297.176 C 271.353 297.069,270.555 296.018,269.706 294.839 C 268.856 293.661,267.870 292.347,267.514 291.918 C 266.174 290.307,259.155 281.674,258.033 280.258 C 257.390 279.447,256.465 278.320,255.976 277.755 C 255.398 277.087,255.171 276.456,255.325 275.949 C 255.649 274.883,256.196 272.685,256.487 271.276 C 256.620 270.633,256.867 269.757,257.037 269.328 C 257.406 268.395,258.194 265.324,258.686 262.902 C 258.882 261.938,259.203 260.360,259.399 259.396 C 259.595 258.432,259.921 256.646,260.123 255.426 C 260.326 254.206,260.606 253.023,260.746 252.797 C 261.037 252.325,261.733 252.241,261.734 252.678 " stroke="none" fill="#9a9a9a" fill-rule="evenodd"></path></g></svg>