<svg xmlns="http://www.w3.org/2000/svg" xmlns:xlink="http://www.w3.org/1999/xlink" viewBox="0 0 256 197.41"><defs><style>.cls-1,.cls-2{fill-rule:evenodd;}.cls-1{fill:url(#linear-gradient);}.cls-2{fill:url(#linear-gradient-2);}</style><linearGradient id="linear-gradient" x1="1" y1="227.65" x2="1.35" y2="227.3" gradientTransform="matrix(721.1, 0, 0, -482.94, -719.2, 109942.4)" gradientUnits="userSpaceOnUse"><stop offset="0" stop-color="#cbced0"/><stop offset="1" stop-color="#84838b"/></linearGradient><linearGradient id="linear-gradient-2" x1="0.49" y1="227.86" x2="0.85" y2="227.5" gradientTransform="matrix(398, 0, 0, -406.13, -99, 92601.87)" gradientUnits="userSpaceOnUse"><stop offset="0" stop-color="#276dc3"/><stop offset="1" stop-color="#165caa"/></linearGradient></defs><g id="Layer_2" data-name="Layer 2"><g id="Layer_1-2" data-name="Layer 1"><path class="cls-1" d="M128,171.45c-70.69,0-128-38.38-128-85.72S57.31,0,128,0,256,38.38,256,85.73,198.69,171.45,128,171.45ZM147.59,33.52c-53.73,0-97.29,26.24-97.29,58.6s43.56,58.61,97.29,58.61S241,132.79,241,92.12s-39.66-58.6-93.39-58.6Z"/><path class="cls-2" d="M194.94,132.77a96.83,96.83,0,0,1,12.25,4.62,23.75,23.75,0,0,1,6.21,4.44,16.81,16.81,0,0,1,2.84,4.08l30.53,51.48-49.35,0-23.07-43.33s-4.73-8.12-7.64-10.48c-2.42-2-3.46-2.66-5.85-2.66H149.13v56.44l-43.67,0V53.23h87.69S233.1,54,233.1,92s-38.16,40.82-38.16,40.82Zm-19-48.27-26.43,0V109h26.44s12.25,0,12.25-12.47c0-12.68-12.25-12-12.25-12Z"/></g></g></svg>