<?xml version="1.0" encoding="UTF-8"?>
<svg version="1.1" viewBox="0 0 49 67" xmlns="http://www.w3.org/2000/svg" xmlns:xlink="http://www.w3.org/1999/xlink">
<title>Sheets-icon</title>
<desc>Created with Sketch.</desc>
<defs>
<path id="h" d="m29.583 0h-25.146c-2.4406 0-4.4375 1.9969-4.4375 4.4375v56.208c0 2.4406 1.9969 4.4375 4.4375 4.4375h38.458c2.4406 0 4.4375-1.9969 4.4375-4.4375v-42.896l-17.75-17.75z"/>
<path id="d" d="m29.583 0h-25.146c-2.4406 0-4.4375 1.9969-4.4375 4.4375v56.208c0 2.4406 1.9969 4.4375 4.4375 4.4375h38.458c2.4406 0 4.4375-1.9969 4.4375-4.4375v-42.896l-17.75-17.75z"/>
<path id="c" d="m29.583 0h-25.146c-2.4406 0-4.4375 1.9969-4.4375 4.4375v56.208c0 2.4406 1.9969 4.4375 4.4375 4.4375h38.458c2.4406 0 4.4375-1.9969 4.4375-4.4375v-42.896l-17.75-17.75z"/>
<linearGradient id="p" x1="50.005%" x2="50.005%" y1="8.5861%" y2="100.01%">
<stop stop-color="#263238" stop-opacity=".2" offset="0"/>
<stop stop-color="#263238" stop-opacity=".02" offset="1"/>
</linearGradient>
<path id="b" d="m29.583 0h-25.146c-2.4406 0-4.4375 1.9969-4.4375 4.4375v56.208c0 2.4406 1.9969 4.4375 4.4375 4.4375h38.458c2.4406 0 4.4375-1.9969 4.4375-4.4375v-42.896l-17.75-17.75z"/>
<path id="g" d="m29.583 0h-25.146c-2.4406 0-4.4375 1.9969-4.4375 4.4375v56.208c0 2.4406 1.9969 4.4375 4.4375 4.4375h38.458c2.4406 0 4.4375-1.9969 4.4375-4.4375v-42.896l-17.75-17.75z"/>
<path id="f" d="m29.583 0h-25.146c-2.4406 0-4.4375 1.9969-4.4375 4.4375v56.208c0 2.4406 1.9969 4.4375 4.4375 4.4375h38.458c2.4406 0 4.4375-1.9969 4.4375-4.4375v-42.896l-17.75-17.75z"/>
<path id="e" d="m29.583 0h-25.146c-2.4406 0-4.4375 1.9969-4.4375 4.4375v56.208c0 2.4406 1.9969 4.4375 4.4375 4.4375h38.458c2.4406 0 4.4375-1.9969 4.4375-4.4375v-42.896l-17.75-17.75z"/>
<radialGradient id="a" cx="3.168%" cy="2.7174%" r="161.25%" gradientTransform="translate(.03168 .027174) scale(1 .72727) translate(-.03168 -.027174)">
<stop stop-color="#fff" stop-opacity=".1" offset="0"/>
<stop stop-color="#fff" stop-opacity="0" offset="1"/>
</radialGradient>
</defs>
<g fill="none" fill-rule="evenodd">
<g transform="translate(-451 -451)">
<g transform="translate(0 63)">
<g transform="translate(277 299)">
<g transform="translate(174.83 89.958)">
<mask id="l" fill="white">
<use xlink:href="#h"/>
</mask>
<path d="m29.583 0h-25.146c-2.4406 0-4.4375 1.9969-4.4375 4.4375v56.208c0 2.4406 1.9969 4.4375 4.4375 4.4375h38.458c2.4406 0 4.4375-1.9969 4.4375-4.4375v-42.896l-10.354-7.3958-7.3958-10.354z" fill="#0F9D58" fill-rule="nonzero" mask="url(#l)"/>
<mask id="k" fill="white">
<use xlink:href="#d"/>
</mask>
<path d="m11.833 31.802v21.448h23.667v-21.448h-23.667zm10.354 18.49h-7.3958v-3.6979h7.3958v3.6979zm0-5.9167h-7.3958v-3.6979h7.3958v3.6979zm0-5.9167h-7.3958v-3.6979h7.3958v3.6979zm10.354 11.833h-7.3958v-3.6979h7.3958v3.6979zm0-5.9167h-7.3958v-3.6979h7.3958v3.6979zm0-5.9167h-7.3958v-3.6979h7.3958v3.6979z" fill="#F1F1F1" fill-rule="nonzero" mask="url(#k)"/>
<mask id="j" fill="white">
<use xlink:href="#c"/>
</mask>
<polygon points="30.881 16.452 47.333 32.9 47.333 17.75" fill="url(#p)" fill-rule="nonzero" mask="url(#j)"/>
<mask id="i" fill="white">
<use xlink:href="#b"/>
</mask>
<g mask="url(#i)">
<g transform="translate(26.625 -2.9583)">
<path d="m2.9583 2.9583v13.312c0 2.4517 1.9858 4.4375 4.4375 4.4375h13.312l-17.75-17.75z" fill="#87CEAC" fill-rule="nonzero"/>
</g>
</g>
<mask id="o" fill="white">
<use xlink:href="#g"/>
</mask>
<path d="m4.4375 0c-2.4406 0-4.4375 1.9969-4.4375 4.4375v0.36979c0-2.4406 1.9969-4.4375 4.4375-4.4375h25.146v-0.36979h-25.146z" fill="#fff" fill-opacity=".2" fill-rule="nonzero" mask="url(#o)"/>
<mask id="n" fill="white">
<use xlink:href="#f"/>
</mask>
<path d="m42.896 64.714h-38.458c-2.4406 0-4.4375-1.9969-4.4375-4.4375v0.36979c0 2.4406 1.9969 4.4375 4.4375 4.4375h38.458c2.4406 0 4.4375-1.9969 4.4375-4.4375v-0.36979c0 2.4406-1.9969 4.4375-4.4375 4.4375z" fill="#263238" fill-opacity=".2" fill-rule="nonzero" mask="url(#n)"/>
<mask id="m" fill="white">
<use xlink:href="#e"/>
</mask>
<path d="m34.021 17.75c-2.4517 0-4.4375-1.9858-4.4375-4.4375v0.36979c0 2.4517 1.9858 4.4375 4.4375 4.4375h13.312v-0.36979h-13.312z" fill="#263238" fill-opacity=".1" fill-rule="nonzero" mask="url(#m)"/>
<path d="m29.583 0h-25.146c-2.4406 0-4.4375 1.9969-4.4375 4.4375v56.208c0 2.4406 1.9969 4.4375 4.4375 4.4375h38.458c2.4406 0 4.4375-1.9969 4.4375-4.4375v-42.896l-17.75-17.75z" fill="url(#a)" fill-rule="nonzero"/>
</g>
</g>
</g>
</g>
</g>
</svg>
