<svg xmlns="http://www.w3.org/2000/svg" xmlns:xlink="http://www.w3.org/1999/xlink" viewBox="0 0 230.27 218"><defs><style>.cls-1{fill:#fff;}.cls-2{fill:#1f7144;}.cls-3{fill:url(#radial-gradient);}</style><radialGradient id="radial-gradient" cx="18.08" cy="129.7" r="65.63" gradientTransform="matrix(1.29, 0, 0, -2.49, -23.15, 431.62)" gradientUnits="userSpaceOnUse"><stop offset="0" stop-color="#237f4c"/><stop offset="1" stop-color="#1e6c41"/></radialGradient></defs><g id="Layer_2" data-name="Layer 2"><g id="Layer_1-2" data-name="Layer 1"><rect class="cls-1" x="11.37" y="23.85" width="215.68" height="169.15" rx="4.24"/><path class="cls-2" d="M125.52,153.71h36.79v18.9H125.52Zm44.33,0h36.79v18.86H169.85Zm-44.33-27.39h36.79v19.8H125.52Zm44.33,0h36.79v19.8H169.85ZM125.52,99h36.79v19.81H125.52Zm44.33,0h36.79v19.81H169.85ZM125.52,71.61h36.79v19.8H125.52Zm44.33,0h36.79v19.8H169.85ZM125.52,44.26h36.79v19.8H125.52Zm44.33,0h36.79v19.8H169.85ZM124.24,21.65v7.51h98.45V188.6H124.24v7.54h97.82a8.21,8.21,0,0,0,8.21-8.21V29.86a8.22,8.22,0,0,0-8.21-8.21Z"/><path class="cls-3" d="M131.27,0,0,23.34v171L131.18,218l.08-218Zm-42,70.35L70.51,109l19.3,38.87-17.45-1L60.88,118.37,49.64,145.53l-15.36-.87,18-35.68L35.18,72.9l16.62-.78,9.67,26.29L73.1,71.09l16.2-.74Z"/></g></g></svg>