<?xml version="1.0" encoding="UTF-8"?>
<svg width="192.03" height="192.03" enable-background="new 0 0 192.026 192.026" version="1.1" viewBox="0 0 192.026 192.026" xmlSpace="preserve" xmlns="http://www.w3.org/2000/svg" xmlnsCc="http://creativecommons.org/ns#" xmlnsDc="http://purl.org/dc/elements/1.1/" xmlnsRdf="http://www.w3.org/1999/02/22-rdf-syntax-ns#" xmlnsXlink="http://www.w3.org/1999/xlink"><metadata><rdfRDF><ccWork rdfAbout=""><dcFormat>image/svg+xml</dcFormat><dcType rdfResource="http://purl.org/dc/dcmitype/StillImage"/></ccWork></rdfRDF></metadata><defs><radialGradient id="a" cx="24.183" cy="95.734" r="52.188" gradientTransform="matrix(1.2948 0 0 2.4874 -26.649 -142.39)" gradientUnits="userSpaceOnUse"><stop stop-color="#237f4c" offset="0"/><stop stop-color="#1e6c41" offset="1"/></radialGradient></defs>
<rect x="13.5" y="28.026" width="171.5" height="134.5" ry="3.375" fill="#fff"/><g transform="translate(0 87.031)"><path d="m104.27 44.256h29.253v15.027h-29.253zm35.25 0h29.253v14.995h-29.253zm-35.25-21.781h29.253v15.745h-29.253zm35.25 0h29.253v15.745h-29.253zm-35.25-21.75h29.253v15.745h-29.253zm35.25 0h29.253v15.745h-29.253zm-35.25-21.75h29.253v15.745h-29.253zm35.25 0h29.253v15.745h-29.253zm-35.25-21.75h29.253v15.745h-29.253zm35.25 0h29.253v15.745h-29.253zm-36.269-17.975v5.9688h78.281v126.78h-78.281v6h77.781c3.6062 0 6.5312-2.9251 6.5312-6.5312v-125.69c0-3.6062-2.9251-6.5312-6.5312-6.5312h-77.781z" fill="#1f7144"/></g><path d="m108.84 9.0625l-104.38 18.562v135.94l104.31 18.844 0.0625-173.34zm-33.375 55.938l-14.938 30.719 15.344 30.906-13.875-0.8125-9.125-22.625-8.9375 21.594-12.219-0.6875 14.344-28.375-13.625-28.688 13.219-0.625 7.6875 20.906 9.25-21.719 12.875-0.59375z" fill="url(#a)"/>
</svg>