<svg xmlns="http://www.w3.org/2000/svg" xmlns:xlink="http://www.w3.org/1999/xlink" viewBox="0 0 177.45 244"><defs><style>.cls-1,.cls-9{fill:#fff;}.cls-1{fill-rule:evenodd;}.cls-2{mask:url(#mask);}.cls-3{fill:#0f9d58;}.cls-4{fill:#f1f1f1;}.cls-5{mask:url(#mask-3);}.cls-6{fill:url(#linear-gradient);}.cls-7{mask:url(#mask-4);}.cls-8{fill:#87ceac;}.cls-11,.cls-9{fill-opacity:0.2;}.cls-10{mask:url(#mask-6);}.cls-11,.cls-12{fill:#263238;}.cls-12{fill-opacity:0.1;}.cls-13{fill:url(#radial-gradient);}</style><mask id="mask" x="0" y="0" width="177.45" height="244" maskUnits="userSpaceOnUse"><g id="l"><path id="h" class="cls-1" d="M110.91,0H16.64A16.69,16.69,0,0,0,0,16.64V227.36A16.69,16.69,0,0,0,16.64,244H160.81a16.69,16.69,0,0,0,16.64-16.64V66.54L110.91,0Z"/></g></mask><mask id="mask-3" x="0" y="0" width="177.45" height="244" maskUnits="userSpaceOnUse"><g id="j"><path id="c" class="cls-1" d="M110.91,0H16.64A16.69,16.69,0,0,0,0,16.64V227.36A16.69,16.69,0,0,0,16.64,244H160.81a16.69,16.69,0,0,0,16.64-16.64V66.54L110.91,0Z"/></g></mask><linearGradient id="linear-gradient" x1="-28.96" y1="247.68" x2="-28.96" y2="244.26" gradientTransform="matrix(16.45, 0, 0, -16.45, 623.1, 4140.86)" gradientUnits="userSpaceOnUse"><stop offset="0" stop-color="#263238" stop-opacity="0.2"/><stop offset="1" stop-color="#263238" stop-opacity="0.02"/></linearGradient><mask id="mask-4" x="0" y="0" width="177.45" height="244" maskUnits="userSpaceOnUse"><g id="i"><path id="b" class="cls-1" d="M110.91,0H16.64A16.69,16.69,0,0,0,0,16.64V227.36A16.69,16.69,0,0,0,16.64,244H160.81a16.69,16.69,0,0,0,16.64-16.64V66.54L110.91,0Z"/></g></mask><mask id="mask-6" x="0" y="0" width="177.45" height="244" maskUnits="userSpaceOnUse"><g id="n"><path id="f" class="cls-1" d="M110.91,0H16.64A16.69,16.69,0,0,0,0,16.64V227.36A16.69,16.69,0,0,0,16.64,244H160.81a16.69,16.69,0,0,0,16.64-16.64V66.54L110.91,0Z"/></g></mask><radialGradient id="radial-gradient" cx="-37.36" cy="250.78" r="6.05" gradientTransform="matrix(47.33, 0, 0, -47.33, 1774.12, 11877.09)" gradientUnits="userSpaceOnUse"><stop offset="0" stop-color="#fff" stop-opacity="0.1"/><stop offset="1" stop-color="#fff" stop-opacity="0"/></radialGradient></defs><g id="Layer_2" data-name="Layer 2"><g id="Layer_1-2" data-name="Layer 1"><g class="cls-2"><path class="cls-3" d="M110.91,0H16.64A16.69,16.69,0,0,0,0,16.64V227.36A16.69,16.69,0,0,0,16.64,244H160.81a16.69,16.69,0,0,0,16.64-16.64V66.54L138.63,38.82,110.91,0Z"/></g><g class="cls-2"><path class="cls-4" d="M44.36,119.23v80.41h88.73V119.23Zm38.82,69.32H55.45V174.68H83.18Zm0-22.19H55.45V152.5H83.18Zm0-22.18H55.45V130.32H83.18ZM122,188.54H94.27V174.68H122Zm0-22.18H94.27V152.5H122Zm0-22.18H94.27V130.32H122Z"/></g><g class="cls-5"><polygon class="cls-6" points="115.77 61.68 177.45 123.34 177.45 66.55 115.77 61.68"/></g><g class="cls-7"><path class="cls-8" d="M110.91,0V49.91a16.63,16.63,0,0,0,16.64,16.63h49.9L110.91,0Z"/></g><g class="cls-2"><path class="cls-9" d="M16.64,0A16.69,16.69,0,0,0,0,16.64V18A16.68,16.68,0,0,1,16.64,1.39h94.27V0Z"/></g><g class="cls-10"><path class="cls-11" d="M160.82,242.61H16.64A16.68,16.68,0,0,1,0,226v1.38A16.69,16.69,0,0,0,16.64,244H160.82a16.68,16.68,0,0,0,16.63-16.64V226A16.67,16.67,0,0,1,160.82,242.61Z"/></g><g class="cls-5"><path class="cls-12" d="M127.55,66.55a16.63,16.63,0,0,1-16.64-16.64V51.3a16.63,16.63,0,0,0,16.64,16.63h49.9V66.55Z"/></g><path class="cls-13" d="M110.91,0H16.64A16.69,16.69,0,0,0,0,16.64V227.36A16.69,16.69,0,0,0,16.64,244H160.81a16.69,16.69,0,0,0,16.64-16.64V66.54L110.91,0Z"/></g></g></svg>