<svg width="1566" height="457" viewBox="0 0 1566 457" fill="none" xmlns="http://www.w3.org/2000/svg">
<path d="M879.06 453.013C877.893 451.019 876.975 440.17 877.02 428.903C877.098 409.538 879.379 406.22 918.679 368.296C1000.32 289.516 1093.35 223.117 1192.61 172.783C1248.71 144.341 1313.14 119.68 1318.18 124.727C1319.58 126.127 1284.15 145.549 1239.44 167.886C1194.73 190.223 1139.69 220.047 1117.13 234.16C1015.42 297.772 890.267 403.458 890.267 425.726C890.267 432.095 892.741 437.306 895.764 437.306C898.787 437.306 932.997 405.154 971.786 365.858C1010.57 326.561 1060.12 281.844 1081.88 266.487C1129.73 232.725 1211.2 189.688 1247.25 179.138C1282.91 168.7 1272.75 176.71 1225.73 196.109C1154.8 225.372 1054.62 300.825 983.717 378.398C927.61 439.78 887.894 468.095 879.06 453.013V453.013ZM1076.23 345.695C1072.51 339.677 1086.3 330.912 1136.43 307.409C1186.46 283.96 1242.2 267.977 1271.49 268.688L1293.3 269.217L1271.95 273.413C1235.72 280.528 1203.91 292.584 1143.69 322.016C1081.66 352.328 1080.56 352.715 1076.23 345.695V345.695ZM1044.72 340.924C1044.72 334.357 1064.8 321.224 1069.96 324.417C1075.52 327.856 1059.83 345.483 1051.22 345.483C1047.65 345.483 1044.72 343.432 1044.72 340.924V340.924ZM384.053 316.884C365.395 304.516 360.389 303.403 333.235 305.585C273.972 310.348 219.248 281.413 211.74 241.345C201.903 188.844 273.439 113.509 333.129 113.509C358.316 113.509 367.974 123.002 360.189 140.11C355.257 150.947 357.043 154.037 381.763 177.421C396.586 191.443 410.749 208.255 413.235 214.781C419.781 231.962 413.363 261.455 399.486 277.967L387.463 292.274L398.076 309.467C403.913 318.923 407.803 327.548 406.72 328.632C405.637 329.716 395.437 324.429 384.053 316.884V316.884ZM337.705 264.534C330.415 246.077 329.295 224.521 335.253 217.333C340.756 210.694 342.322 210.759 350.264 217.956C355.141 222.375 360.519 233.398 362.215 242.452C365.394 259.415 371.871 261.3 380.409 247.747C386.019 238.842 374.485 208.067 356.031 182.699C349.876 174.237 344.839 163.839 344.839 159.591C344.839 147.353 331.755 145.492 308.427 154.412C284.624 163.514 244.98 200.071 240.791 216.781C233.12 247.383 266.673 272.686 315.188 272.885C337.89 272.978 340.638 271.959 337.705 264.534V264.534ZM448.281 305.315L434.135 293.104L434.509 221.43C434.714 182.009 436.376 143.807 438.202 136.538C444.441 111.704 483.623 113.29 481.368 138.285C480.799 144.594 477.233 174.765 473.443 205.332C469.653 235.899 467.658 262.744 469.009 264.988C470.36 267.231 480.443 267.654 491.415 265.928C542.76 257.853 570.683 257.719 585.666 265.476C602.314 274.096 602.632 274.769 595.967 287.239C589.552 299.239 580.025 302.505 537.911 307.139C518.001 309.33 492.871 312.563 482.068 314.324C465.376 317.044 460.302 315.691 448.281 305.314L448.281 305.315ZM840.783 309.781C818.294 301.51 788.904 279.495 788.904 270.921C788.904 267.394 791.897 262.022 795.555 258.982C799.213 255.943 803.177 241.741 804.363 227.423C805.548 213.104 810.208 195.752 814.717 188.862C821.636 178.289 826.493 176.335 845.863 176.335C858.485 176.335 873.467 179.6 879.157 183.59C907.432 203.419 891.614 266.139 855.031 279.257C842.129 283.883 858.194 289.031 887.658 289.71C923.797 290.544 929.341 293.52 913.613 303.642C896.66 314.552 861.756 317.494 840.783 309.781V309.781ZM853.655 241.529C859.718 232.263 860.379 227.126 856.453 219.781C853.626 214.492 849.294 210.165 846.826 210.165C840.209 210.165 832.346 227.052 832.346 241.26C832.346 257.234 843.287 257.372 853.655 241.529V241.529ZM42.7532 300.116C24.0513 291.396 15.699 283.853 7.67065 268.431C-5.10031 243.899 -1.29202 234.046 14.4058 251.005C24.879 262.32 29.1082 263.326 66.2085 263.326C107.292 263.326 146.32 253.973 156.503 241.688C173.949 220.642 134.777 186.755 72.6455 169.144C30.6804 157.25 26.9213 146.584 58.5402 129.12C84.3688 114.854 137.475 111.7 149.522 123.717C156.71 130.887 154.97 131.776 127.675 134.868C111.363 136.715 93.2779 140.067 87.485 142.316C78.0844 145.966 79.8056 147.681 103.5 158.266C118.101 164.79 137.649 172.616 146.941 175.659C184.145 187.841 201.847 215.401 196.387 252.644C193.244 274.089 177.22 289.326 145.191 301.324C108.519 315.062 73.9374 314.654 42.7532 300.116V300.116ZM736.688 301.841C719.769 291.513 705.253 264.666 699.411 232.896C696.187 215.366 695.637 214.912 687.053 222.69C667.421 240.479 653.944 205.142 673.061 186.001C678.371 180.685 685.801 176.335 689.572 176.335C696.552 176.335 699.193 167.733 704.821 126.665C706.933 111.253 711.007 101.956 717.071 98.7061C729.256 92.1764 746.823 101.404 743.511 112.595C742.182 117.085 739.704 127.282 738.004 135.257C736.303 143.231 733.943 153.369 732.757 157.786C730.48 166.275 735.522 167.977 780.551 173.918C807.403 177.461 806.92 183.427 779.424 187.829C747.924 192.872 726.156 205.391 726.156 218.464C726.156 238.949 738.784 260.642 761.613 279.371C773.969 289.508 784.078 300.919 784.078 304.728C784.078 315.118 755.596 313.383 736.688 301.841V301.841ZM622.362 286.517C611.344 259.569 606.817 198.458 615.099 188.466C631.267 168.961 649.383 193.336 652.559 238.868C656.749 298.94 638.935 327.049 622.362 286.517V286.517ZM984.173 277.473C982.816 275.275 985.968 271.192 991.177 268.401C1004.22 261.41 1021.86 261.935 1019.43 269.242C1017.07 276.32 987.695 283.178 984.173 277.473V277.473ZM1209.51 259.316C1226.63 245.405 1267.23 225.294 1285.62 221.61C1293.83 219.967 1300.54 216.447 1300.54 213.789C1300.54 210.997 1294.43 210.181 1286.06 211.856C1275.07 214.058 1271.58 212.992 1271.58 207.432C1271.58 195.866 1350.47 199.531 1352.7 211.2C1353.8 216.967 1350.15 220.367 1340.69 222.387C1333.21 223.982 1301.03 234.185 1269.17 245.059C1237.31 255.933 1207.99 265.919 1204.01 267.25C1200.03 268.58 1202.5 265.01 1209.51 259.316V259.316ZM958.954 255.829C953.074 251.705 946.074 244.236 943.398 239.23C936.527 226.375 945.283 205.332 957.503 205.332C973.773 205.332 1027.45 183.74 1051.38 167.569C1092.96 139.472 1101.82 150.252 1075.92 197.431C1066.24 215.067 1056.47 229.496 1054.22 229.496C1044.95 229.496 1045.53 219.871 1056.06 199.044L1067.2 177.012L1043.51 189.031C1030.49 195.642 1006.1 205.294 989.335 210.48C955.915 220.815 947.2 230.927 964.055 239.811C976.526 246.385 982.32 254.027 978.959 259.47C975.496 265.081 970.972 264.257 958.954 255.829V255.829ZM1327.05 186.074C1328.66 183.456 1343.61 171.58 1360.26 159.684C1387.2 140.437 1407.92 129.755 1501.03 87.1031C1531.75 73.0295 1556.36 52.4657 1556.36 40.8727C1556.36 35.9497 1558.54 30.5778 1561.19 28.9351C1569.44 23.8284 1566.47 47.4684 1556.88 63.2184C1549.79 74.8553 1536.92 82.7558 1498.82 98.8509C1471.9 110.225 1422.91 135.574 1389.95 155.183C1330.02 190.832 1321.54 194.999 1327.05 186.074ZM1128.45 178.547C1126.87 174.421 1132.22 160.411 1140.45 147.163L1155.31 123.232L1130.91 135.61C1117.49 142.418 1105.48 146.951 1104.21 145.683C1099.86 141.323 1155.14 103.142 1178.36 94.4759C1215.4 80.6461 1227.47 92.3933 1196.71 112.343C1187.45 118.347 1170.65 137.331 1159.36 154.53C1137.92 187.211 1133.18 190.895 1128.45 178.547V178.547ZM607.362 145.261C602.556 132.722 609.292 122.358 621.152 124.044C629.129 125.178 632.034 128.816 632.034 137.673C632.034 146.53 629.129 150.168 621.152 151.302C614.625 152.23 609.106 149.813 607.362 145.261V145.261ZM1269.92 124.73C1261.59 116.393 1269.82 104.281 1298.5 82.652C1315.72 69.6677 1329.02 58.2473 1328.04 57.2732C1325.45 54.6722 1254.22 73.4642 1242.14 79.9385C1234.66 83.9441 1232.73 83.9759 1235.15 80.0534C1245.78 62.8426 1344.26 29.8071 1358.56 38.6568C1371.24 46.503 1361.6 60.8531 1328.3 83.7025C1309.05 96.9097 1288.75 112.256 1283.19 117.806C1277.63 123.356 1271.66 126.472 1269.92 124.73ZM1343.99 104.69C1343.99 100.319 1440.29 63.3395 1443.45 66.4984C1445.45 68.5017 1354.13 108.699 1347.61 108.684C1345.61 108.68 1343.99 106.882 1343.99 104.69ZM1363.29 21.8522C1363.29 19.2392 1370.35 13.248 1378.98 8.53842C1400.99 -3.47471 1464.13 -2.65643 1492.92 10.0149L1513.94 19.2695H1466.37C1440.21 19.2695 1406.31 20.9195 1391.05 22.9363C1373.6 25.2417 1363.29 24.8392 1363.29 21.8522Z" fill="#4D6960"/>
</svg>
